G04 EAGLE Gerber RS-274X export*
G75*
%MOMM*%
%FSLAX34Y34*%
%LPD*%
%INTop Copper*%
%IPPOS*%
%AMOC8*
5,1,8,0,0,1.08239X$1,22.5*%
G01*
%ADD10R,1.200000X0.800000*%
%ADD11R,0.850000X0.900000*%
%ADD12R,2.100000X1.400000*%
%ADD13C,0.300000*%
%ADD14C,2.500000*%
%ADD15C,2.250000*%
%ADD16R,4.500000X2.600000*%
%ADD17C,0.120000*%
%ADD18C,0.500000*%
%ADD19C,0.152400*%
%ADD20C,0.756400*%

G36*
X175020Y424242D02*
X175020Y424242D01*
X175039Y424240D01*
X175141Y424262D01*
X175243Y424279D01*
X175260Y424288D01*
X175280Y424292D01*
X175369Y424345D01*
X175460Y424394D01*
X175474Y424408D01*
X175491Y424418D01*
X175558Y424497D01*
X175630Y424572D01*
X175638Y424590D01*
X175651Y424605D01*
X175690Y424701D01*
X175733Y424795D01*
X175735Y424815D01*
X175743Y424833D01*
X175761Y425000D01*
X175761Y449239D01*
X215000Y449239D01*
X215090Y449254D01*
X215181Y449261D01*
X215211Y449273D01*
X215243Y449279D01*
X215323Y449321D01*
X215407Y449357D01*
X215439Y449383D01*
X215460Y449394D01*
X215482Y449417D01*
X215538Y449462D01*
X225315Y459239D01*
X306444Y459239D01*
X306464Y459242D01*
X306483Y459240D01*
X306585Y459262D01*
X306687Y459279D01*
X306704Y459288D01*
X306724Y459292D01*
X306813Y459345D01*
X306904Y459394D01*
X306918Y459408D01*
X306935Y459418D01*
X307002Y459497D01*
X307074Y459572D01*
X307082Y459590D01*
X307095Y459605D01*
X307134Y459701D01*
X307177Y459795D01*
X307179Y459815D01*
X307187Y459833D01*
X307205Y460000D01*
X307205Y586444D01*
X307202Y586464D01*
X307204Y586483D01*
X307182Y586585D01*
X307166Y586687D01*
X307156Y586704D01*
X307152Y586724D01*
X307099Y586813D01*
X307050Y586904D01*
X307036Y586918D01*
X307026Y586935D01*
X306947Y587002D01*
X306872Y587074D01*
X306854Y587082D01*
X306839Y587095D01*
X306743Y587134D01*
X306649Y587177D01*
X306629Y587179D01*
X306611Y587187D01*
X306444Y587205D01*
X113556Y587205D01*
X113536Y587202D01*
X113517Y587204D01*
X113415Y587182D01*
X113313Y587166D01*
X113296Y587156D01*
X113276Y587152D01*
X113187Y587099D01*
X113096Y587050D01*
X113082Y587036D01*
X113065Y587026D01*
X112998Y586947D01*
X112926Y586872D01*
X112918Y586854D01*
X112905Y586839D01*
X112866Y586743D01*
X112823Y586649D01*
X112821Y586629D01*
X112813Y586611D01*
X112795Y586444D01*
X112795Y425000D01*
X112798Y424980D01*
X112796Y424961D01*
X112818Y424859D01*
X112834Y424757D01*
X112844Y424740D01*
X112848Y424720D01*
X112901Y424631D01*
X112950Y424540D01*
X112964Y424526D01*
X112974Y424509D01*
X113053Y424442D01*
X113128Y424371D01*
X113146Y424362D01*
X113161Y424349D01*
X113257Y424310D01*
X113351Y424267D01*
X113371Y424265D01*
X113389Y424257D01*
X113556Y424239D01*
X175000Y424239D01*
X175020Y424242D01*
G37*
G36*
X285020Y239242D02*
X285020Y239242D01*
X285039Y239240D01*
X285141Y239262D01*
X285243Y239279D01*
X285260Y239288D01*
X285280Y239292D01*
X285369Y239345D01*
X285460Y239394D01*
X285474Y239408D01*
X285491Y239418D01*
X285558Y239497D01*
X285630Y239572D01*
X285638Y239590D01*
X285651Y239605D01*
X285690Y239701D01*
X285733Y239795D01*
X285735Y239815D01*
X285743Y239833D01*
X285761Y240000D01*
X285761Y380000D01*
X285758Y380020D01*
X285760Y380039D01*
X285738Y380141D01*
X285722Y380243D01*
X285712Y380260D01*
X285708Y380280D01*
X285655Y380369D01*
X285606Y380460D01*
X285592Y380474D01*
X285582Y380491D01*
X285503Y380558D01*
X285428Y380630D01*
X285410Y380638D01*
X285395Y380651D01*
X285299Y380690D01*
X285205Y380733D01*
X285185Y380735D01*
X285167Y380743D01*
X285000Y380761D01*
X147336Y380761D01*
X147316Y380758D01*
X147297Y380760D01*
X147195Y380738D01*
X147093Y380722D01*
X147076Y380712D01*
X147056Y380708D01*
X146967Y380655D01*
X146876Y380606D01*
X146862Y380592D01*
X146845Y380582D01*
X146778Y380503D01*
X146706Y380428D01*
X146698Y380410D01*
X146685Y380395D01*
X146646Y380299D01*
X146603Y380205D01*
X146601Y380185D01*
X146593Y380167D01*
X146575Y380000D01*
X146575Y369868D01*
X145682Y368975D01*
X140000Y368975D01*
X139980Y368972D01*
X139961Y368974D01*
X139859Y368952D01*
X139757Y368936D01*
X139740Y368926D01*
X139720Y368922D01*
X139631Y368869D01*
X139540Y368820D01*
X139526Y368806D01*
X139509Y368796D01*
X139442Y368717D01*
X139371Y368642D01*
X139362Y368624D01*
X139349Y368609D01*
X139310Y368513D01*
X139267Y368419D01*
X139265Y368399D01*
X139257Y368381D01*
X139239Y368214D01*
X139239Y341786D01*
X139242Y341766D01*
X139240Y341747D01*
X139262Y341645D01*
X139279Y341543D01*
X139288Y341526D01*
X139292Y341506D01*
X139345Y341417D01*
X139394Y341326D01*
X139408Y341312D01*
X139418Y341295D01*
X139497Y341228D01*
X139572Y341156D01*
X139590Y341148D01*
X139605Y341135D01*
X139701Y341096D01*
X139795Y341053D01*
X139815Y341051D01*
X139833Y341043D01*
X140000Y341025D01*
X145682Y341025D01*
X146575Y340132D01*
X146575Y329868D01*
X145682Y328975D01*
X143848Y328975D01*
X143828Y328972D01*
X143809Y328974D01*
X143707Y328952D01*
X143605Y328936D01*
X143588Y328926D01*
X143568Y328922D01*
X143479Y328869D01*
X143388Y328820D01*
X143374Y328806D01*
X143357Y328796D01*
X143290Y328717D01*
X143218Y328642D01*
X143210Y328624D01*
X143197Y328609D01*
X143158Y328513D01*
X143115Y328419D01*
X143113Y328399D01*
X143105Y328381D01*
X143087Y328214D01*
X143087Y324853D01*
X139462Y321228D01*
X139419Y321169D01*
X139374Y321121D01*
X139366Y321104D01*
X139349Y321084D01*
X139337Y321054D01*
X139318Y321028D01*
X139294Y320949D01*
X139270Y320898D01*
X139268Y320884D01*
X139257Y320856D01*
X139253Y320815D01*
X139246Y320793D01*
X139247Y320761D01*
X139239Y320690D01*
X139239Y240000D01*
X139242Y239980D01*
X139240Y239961D01*
X139262Y239859D01*
X139279Y239757D01*
X139288Y239740D01*
X139292Y239720D01*
X139345Y239631D01*
X139394Y239540D01*
X139408Y239526D01*
X139418Y239509D01*
X139497Y239442D01*
X139572Y239371D01*
X139590Y239362D01*
X139605Y239349D01*
X139701Y239310D01*
X139795Y239267D01*
X139815Y239265D01*
X139833Y239257D01*
X140000Y239239D01*
X285000Y239239D01*
X285020Y239242D01*
G37*
G36*
X306464Y232798D02*
X306464Y232798D01*
X306483Y232796D01*
X306585Y232818D01*
X306687Y232834D01*
X306704Y232844D01*
X306724Y232848D01*
X306813Y232901D01*
X306904Y232950D01*
X306918Y232964D01*
X306935Y232974D01*
X307002Y233053D01*
X307074Y233128D01*
X307082Y233146D01*
X307095Y233161D01*
X307134Y233257D01*
X307177Y233351D01*
X307179Y233371D01*
X307187Y233389D01*
X307205Y233556D01*
X307205Y456476D01*
X307202Y456496D01*
X307204Y456515D01*
X307182Y456617D01*
X307166Y456719D01*
X307156Y456736D01*
X307152Y456756D01*
X307099Y456845D01*
X307050Y456936D01*
X307036Y456950D01*
X307026Y456967D01*
X306947Y457034D01*
X306872Y457106D01*
X306854Y457114D01*
X306839Y457127D01*
X306743Y457166D01*
X306649Y457209D01*
X306629Y457211D01*
X306611Y457219D01*
X306444Y457237D01*
X288508Y457237D01*
X288436Y457226D01*
X288365Y457224D01*
X288316Y457206D01*
X288265Y457198D01*
X288201Y457164D01*
X288134Y457139D01*
X288093Y457107D01*
X288048Y457082D01*
X287998Y457030D01*
X287942Y456985D01*
X287914Y456942D01*
X287878Y456904D01*
X287848Y456839D01*
X287809Y456778D01*
X287796Y456728D01*
X287775Y456681D01*
X287767Y456609D01*
X287749Y456540D01*
X287753Y456488D01*
X287747Y456437D01*
X287763Y456366D01*
X287763Y423856D01*
X266144Y402237D01*
X196460Y402237D01*
X196370Y402223D01*
X196279Y402215D01*
X196249Y402203D01*
X196217Y402198D01*
X196136Y402155D01*
X196052Y402119D01*
X196020Y402093D01*
X196000Y402082D01*
X195977Y402059D01*
X195921Y402014D01*
X187986Y394079D01*
X187933Y394005D01*
X187873Y393935D01*
X187861Y393905D01*
X187842Y393879D01*
X187815Y393792D01*
X187781Y393707D01*
X187777Y393666D01*
X187770Y393644D01*
X187771Y393612D01*
X187763Y393540D01*
X187763Y383658D01*
X187754Y383628D01*
X187755Y383556D01*
X187747Y383485D01*
X187758Y383434D01*
X187760Y383382D01*
X187784Y383315D01*
X187800Y383244D01*
X187826Y383200D01*
X187844Y383151D01*
X187889Y383095D01*
X187926Y383033D01*
X187965Y382999D01*
X187997Y382959D01*
X188058Y382920D01*
X188113Y382873D01*
X188161Y382854D01*
X188204Y382826D01*
X188274Y382808D01*
X188341Y382781D01*
X188412Y382773D01*
X188443Y382766D01*
X188466Y382767D01*
X188508Y382763D01*
X286144Y382763D01*
X287763Y381144D01*
X287763Y238856D01*
X286144Y237237D01*
X138856Y237237D01*
X137237Y238856D01*
X137237Y302238D01*
X137234Y302258D01*
X137236Y302277D01*
X137214Y302379D01*
X137198Y302481D01*
X137188Y302498D01*
X137184Y302518D01*
X137131Y302607D01*
X137082Y302698D01*
X137068Y302712D01*
X137058Y302729D01*
X136979Y302796D01*
X136904Y302868D01*
X136886Y302876D01*
X136871Y302889D01*
X136775Y302928D01*
X136681Y302971D01*
X136661Y302973D01*
X136643Y302981D01*
X136476Y302999D01*
X126280Y302999D01*
X124229Y305050D01*
X124229Y314950D01*
X126280Y317001D01*
X127778Y317001D01*
X127868Y317015D01*
X127959Y317023D01*
X127989Y317035D01*
X128021Y317040D01*
X128102Y317083D01*
X128186Y317119D01*
X128218Y317145D01*
X128238Y317156D01*
X128261Y317179D01*
X128317Y317224D01*
X137014Y325921D01*
X137061Y325986D01*
X137074Y326000D01*
X137077Y326007D01*
X137127Y326065D01*
X137139Y326095D01*
X137158Y326121D01*
X137185Y326208D01*
X137219Y326293D01*
X137223Y326334D01*
X137230Y326356D01*
X137229Y326388D01*
X137237Y326460D01*
X137237Y327738D01*
X137234Y327758D01*
X137236Y327777D01*
X137214Y327879D01*
X137198Y327981D01*
X137188Y327998D01*
X137184Y328018D01*
X137131Y328107D01*
X137082Y328198D01*
X137068Y328212D01*
X137058Y328229D01*
X136979Y328296D01*
X136904Y328368D01*
X136886Y328376D01*
X136871Y328389D01*
X136775Y328428D01*
X136681Y328471D01*
X136661Y328473D01*
X136643Y328481D01*
X136476Y328499D01*
X135721Y328499D01*
X134549Y329671D01*
X134549Y340329D01*
X135721Y341501D01*
X136476Y341501D01*
X136496Y341504D01*
X136515Y341502D01*
X136617Y341524D01*
X136719Y341540D01*
X136736Y341550D01*
X136756Y341554D01*
X136845Y341607D01*
X136936Y341656D01*
X136950Y341670D01*
X136967Y341680D01*
X137034Y341759D01*
X137106Y341834D01*
X137114Y341852D01*
X137127Y341867D01*
X137166Y341963D01*
X137209Y342057D01*
X137211Y342077D01*
X137219Y342095D01*
X137237Y342262D01*
X137237Y367738D01*
X137234Y367758D01*
X137236Y367777D01*
X137214Y367879D01*
X137198Y367981D01*
X137188Y367998D01*
X137184Y368018D01*
X137131Y368107D01*
X137082Y368198D01*
X137068Y368212D01*
X137058Y368229D01*
X136979Y368296D01*
X136904Y368368D01*
X136886Y368376D01*
X136871Y368389D01*
X136775Y368428D01*
X136681Y368471D01*
X136661Y368473D01*
X136643Y368481D01*
X136476Y368499D01*
X135721Y368499D01*
X134549Y369671D01*
X134549Y380329D01*
X135721Y381501D01*
X137276Y381501D01*
X137296Y381504D01*
X137315Y381502D01*
X137417Y381524D01*
X137519Y381540D01*
X137536Y381550D01*
X137556Y381554D01*
X137645Y381607D01*
X137736Y381656D01*
X137750Y381670D01*
X137767Y381680D01*
X137834Y381759D01*
X137906Y381834D01*
X137914Y381852D01*
X137927Y381867D01*
X137966Y381963D01*
X138009Y382057D01*
X138011Y382077D01*
X138019Y382095D01*
X138037Y382262D01*
X138037Y382738D01*
X138034Y382758D01*
X138036Y382777D01*
X138014Y382879D01*
X137998Y382981D01*
X137988Y382998D01*
X137984Y383018D01*
X137931Y383107D01*
X137882Y383198D01*
X137868Y383212D01*
X137858Y383229D01*
X137779Y383296D01*
X137704Y383368D01*
X137686Y383376D01*
X137671Y383389D01*
X137575Y383428D01*
X137481Y383471D01*
X137461Y383473D01*
X137443Y383481D01*
X137276Y383499D01*
X135721Y383499D01*
X135538Y383682D01*
X135522Y383694D01*
X135510Y383709D01*
X135422Y383766D01*
X135339Y383826D01*
X135320Y383832D01*
X135303Y383842D01*
X135202Y383868D01*
X135104Y383898D01*
X135084Y383898D01*
X135064Y383903D01*
X134961Y383894D01*
X134858Y383892D01*
X134839Y383885D01*
X134819Y383883D01*
X134724Y383843D01*
X134627Y383807D01*
X134611Y383795D01*
X134593Y383787D01*
X134462Y383682D01*
X134279Y383499D01*
X124121Y383499D01*
X122949Y384671D01*
X122949Y395329D01*
X124121Y396501D01*
X125676Y396501D01*
X125696Y396504D01*
X125715Y396502D01*
X125817Y396524D01*
X125919Y396540D01*
X125936Y396550D01*
X125956Y396554D01*
X126045Y396607D01*
X126136Y396656D01*
X126150Y396670D01*
X126167Y396680D01*
X126234Y396759D01*
X126306Y396834D01*
X126314Y396852D01*
X126327Y396867D01*
X126366Y396963D01*
X126409Y397057D01*
X126411Y397077D01*
X126419Y397095D01*
X126437Y397262D01*
X126437Y397738D01*
X126434Y397758D01*
X126436Y397777D01*
X126414Y397879D01*
X126398Y397981D01*
X126388Y397998D01*
X126384Y398018D01*
X126331Y398107D01*
X126282Y398198D01*
X126268Y398212D01*
X126258Y398229D01*
X126179Y398296D01*
X126104Y398368D01*
X126086Y398376D01*
X126071Y398389D01*
X125975Y398428D01*
X125881Y398471D01*
X125861Y398473D01*
X125843Y398481D01*
X125676Y398499D01*
X124121Y398499D01*
X122949Y399671D01*
X122949Y410329D01*
X124121Y411501D01*
X125676Y411501D01*
X125696Y411504D01*
X125715Y411502D01*
X125817Y411524D01*
X125919Y411540D01*
X125936Y411550D01*
X125956Y411554D01*
X126045Y411607D01*
X126136Y411656D01*
X126150Y411670D01*
X126167Y411680D01*
X126234Y411759D01*
X126306Y411834D01*
X126314Y411852D01*
X126327Y411867D01*
X126366Y411963D01*
X126409Y412057D01*
X126411Y412077D01*
X126419Y412095D01*
X126437Y412262D01*
X126437Y421476D01*
X126434Y421496D01*
X126436Y421515D01*
X126414Y421617D01*
X126398Y421719D01*
X126388Y421736D01*
X126384Y421756D01*
X126331Y421845D01*
X126282Y421936D01*
X126268Y421950D01*
X126258Y421967D01*
X126179Y422034D01*
X126104Y422106D01*
X126086Y422114D01*
X126071Y422127D01*
X125975Y422166D01*
X125881Y422209D01*
X125861Y422211D01*
X125843Y422219D01*
X125676Y422237D01*
X113556Y422237D01*
X113536Y422234D01*
X113517Y422236D01*
X113415Y422214D01*
X113313Y422198D01*
X113296Y422188D01*
X113276Y422184D01*
X113187Y422131D01*
X113096Y422082D01*
X113082Y422068D01*
X113065Y422058D01*
X112998Y421979D01*
X112926Y421904D01*
X112918Y421886D01*
X112905Y421871D01*
X112866Y421775D01*
X112823Y421681D01*
X112821Y421661D01*
X112813Y421643D01*
X112795Y421476D01*
X112795Y233556D01*
X112798Y233536D01*
X112796Y233517D01*
X112818Y233415D01*
X112834Y233313D01*
X112844Y233296D01*
X112848Y233276D01*
X112901Y233187D01*
X112950Y233096D01*
X112964Y233082D01*
X112974Y233065D01*
X113053Y232998D01*
X113128Y232926D01*
X113146Y232918D01*
X113161Y232905D01*
X113257Y232866D01*
X113351Y232823D01*
X113371Y232821D01*
X113389Y232813D01*
X113556Y232795D01*
X306444Y232795D01*
X306464Y232798D01*
G37*
G36*
X185020Y384242D02*
X185020Y384242D01*
X185039Y384240D01*
X185141Y384262D01*
X185243Y384279D01*
X185260Y384288D01*
X185280Y384292D01*
X185369Y384345D01*
X185460Y384394D01*
X185474Y384408D01*
X185491Y384418D01*
X185558Y384497D01*
X185630Y384572D01*
X185638Y384590D01*
X185651Y384605D01*
X185690Y384701D01*
X185733Y384795D01*
X185735Y384815D01*
X185743Y384833D01*
X185761Y385000D01*
X185761Y394685D01*
X195315Y404239D01*
X265000Y404239D01*
X265090Y404254D01*
X265181Y404261D01*
X265211Y404273D01*
X265243Y404279D01*
X265323Y404321D01*
X265407Y404357D01*
X265439Y404383D01*
X265460Y404394D01*
X265482Y404417D01*
X265538Y404462D01*
X285538Y424462D01*
X285591Y424536D01*
X285651Y424605D01*
X285663Y424635D01*
X285682Y424661D01*
X285709Y424748D01*
X285743Y424833D01*
X285747Y424874D01*
X285754Y424897D01*
X285753Y424929D01*
X285761Y425000D01*
X285761Y455000D01*
X285758Y455020D01*
X285760Y455039D01*
X285738Y455141D01*
X285722Y455243D01*
X285712Y455260D01*
X285708Y455280D01*
X285655Y455369D01*
X285606Y455460D01*
X285592Y455474D01*
X285582Y455491D01*
X285503Y455558D01*
X285428Y455630D01*
X285410Y455638D01*
X285395Y455651D01*
X285299Y455690D01*
X285205Y455733D01*
X285185Y455735D01*
X285167Y455743D01*
X285000Y455761D01*
X230000Y455761D01*
X229910Y455747D01*
X229819Y455739D01*
X229789Y455727D01*
X229757Y455722D01*
X229677Y455679D01*
X229593Y455643D01*
X229561Y455617D01*
X229540Y455606D01*
X229518Y455583D01*
X229462Y455538D01*
X219685Y445761D01*
X180000Y445761D01*
X179980Y445758D01*
X179961Y445760D01*
X179859Y445738D01*
X179757Y445722D01*
X179740Y445712D01*
X179720Y445708D01*
X179631Y445655D01*
X179540Y445606D01*
X179526Y445592D01*
X179509Y445582D01*
X179442Y445503D01*
X179371Y445428D01*
X179362Y445410D01*
X179349Y445395D01*
X179310Y445299D01*
X179267Y445205D01*
X179265Y445185D01*
X179257Y445167D01*
X179239Y445000D01*
X179239Y410315D01*
X169462Y400538D01*
X169409Y400464D01*
X169349Y400395D01*
X169337Y400365D01*
X169318Y400339D01*
X169291Y400252D01*
X169257Y400167D01*
X169253Y400126D01*
X169246Y400103D01*
X169247Y400071D01*
X169239Y400000D01*
X169239Y399381D01*
X169254Y399291D01*
X169261Y399200D01*
X169273Y399171D01*
X169279Y399139D01*
X169321Y399058D01*
X169357Y398974D01*
X169383Y398942D01*
X169394Y398921D01*
X169417Y398899D01*
X169462Y398843D01*
X169525Y398780D01*
X169525Y387220D01*
X169462Y387157D01*
X169409Y387083D01*
X169349Y387013D01*
X169337Y386983D01*
X169318Y386957D01*
X169291Y386870D01*
X169257Y386785D01*
X169253Y386744D01*
X169246Y386722D01*
X169247Y386690D01*
X169239Y386619D01*
X169239Y385000D01*
X169242Y384980D01*
X169240Y384961D01*
X169262Y384859D01*
X169279Y384757D01*
X169288Y384740D01*
X169292Y384720D01*
X169345Y384631D01*
X169394Y384540D01*
X169408Y384526D01*
X169418Y384509D01*
X169497Y384442D01*
X169572Y384371D01*
X169590Y384362D01*
X169605Y384349D01*
X169701Y384310D01*
X169795Y384267D01*
X169815Y384265D01*
X169833Y384257D01*
X170000Y384239D01*
X185000Y384239D01*
X185020Y384242D01*
G37*
%LPC*%
G36*
X194710Y490975D02*
X194710Y490975D01*
X189556Y493110D01*
X185610Y497056D01*
X183475Y502210D01*
X183475Y507790D01*
X185610Y512944D01*
X189556Y516890D01*
X194710Y519025D01*
X225290Y519025D01*
X230444Y516890D01*
X234390Y512944D01*
X236525Y507790D01*
X236525Y502210D01*
X234390Y497056D01*
X230444Y493110D01*
X225290Y490975D01*
X194710Y490975D01*
G37*
%LPD*%
%LPC*%
G36*
X194710Y300975D02*
X194710Y300975D01*
X189556Y303110D01*
X185610Y307056D01*
X183475Y312210D01*
X183475Y317790D01*
X185610Y322944D01*
X189556Y326890D01*
X194710Y329025D01*
X225290Y329025D01*
X230444Y326890D01*
X234390Y322944D01*
X236525Y317790D01*
X236525Y312210D01*
X234390Y307056D01*
X230444Y303110D01*
X225290Y300975D01*
X194710Y300975D01*
G37*
%LPD*%
%LPC*%
G36*
X160459Y510975D02*
X160459Y510975D01*
X155764Y512920D01*
X152170Y516514D01*
X150225Y521209D01*
X150225Y548791D01*
X152170Y553486D01*
X155764Y557080D01*
X160459Y559025D01*
X165541Y559025D01*
X170236Y557080D01*
X173830Y553486D01*
X175775Y548791D01*
X175775Y521209D01*
X173830Y516514D01*
X170236Y512920D01*
X165541Y510975D01*
X160459Y510975D01*
G37*
%LPD*%
%LPC*%
G36*
X254459Y260975D02*
X254459Y260975D01*
X249764Y262920D01*
X246170Y266514D01*
X244225Y271209D01*
X244225Y298791D01*
X246170Y303486D01*
X249764Y307080D01*
X254459Y309025D01*
X259541Y309025D01*
X264236Y307080D01*
X267830Y303486D01*
X269775Y298791D01*
X269775Y271209D01*
X267830Y266514D01*
X264236Y262920D01*
X259541Y260975D01*
X254459Y260975D01*
G37*
%LPD*%
G36*
X166564Y382774D02*
X166564Y382774D01*
X166635Y382776D01*
X166684Y382794D01*
X166735Y382802D01*
X166799Y382836D01*
X166866Y382861D01*
X166907Y382893D01*
X166952Y382918D01*
X167002Y382970D01*
X167058Y383015D01*
X167086Y383058D01*
X167122Y383096D01*
X167152Y383161D01*
X167191Y383222D01*
X167204Y383272D01*
X167225Y383319D01*
X167233Y383391D01*
X167251Y383460D01*
X167247Y383512D01*
X167253Y383563D01*
X167237Y383634D01*
X167237Y401144D01*
X177014Y410921D01*
X177067Y410995D01*
X177127Y411065D01*
X177139Y411095D01*
X177158Y411121D01*
X177185Y411208D01*
X177219Y411293D01*
X177223Y411334D01*
X177230Y411356D01*
X177229Y411388D01*
X177237Y411460D01*
X177237Y421492D01*
X177226Y421564D01*
X177224Y421635D01*
X177206Y421684D01*
X177198Y421735D01*
X177164Y421799D01*
X177139Y421866D01*
X177107Y421907D01*
X177082Y421952D01*
X177030Y422002D01*
X176985Y422058D01*
X176942Y422086D01*
X176904Y422122D01*
X176839Y422152D01*
X176778Y422191D01*
X176728Y422204D01*
X176681Y422225D01*
X176609Y422233D01*
X176540Y422251D01*
X176488Y422247D01*
X176437Y422253D01*
X176366Y422237D01*
X132724Y422237D01*
X132704Y422234D01*
X132685Y422236D01*
X132583Y422214D01*
X132481Y422198D01*
X132464Y422188D01*
X132444Y422184D01*
X132355Y422131D01*
X132264Y422082D01*
X132250Y422068D01*
X132233Y422058D01*
X132166Y421979D01*
X132094Y421904D01*
X132086Y421886D01*
X132073Y421871D01*
X132034Y421775D01*
X131991Y421681D01*
X131989Y421661D01*
X131981Y421643D01*
X131963Y421476D01*
X131963Y412262D01*
X131966Y412242D01*
X131964Y412223D01*
X131986Y412121D01*
X132002Y412019D01*
X132012Y412002D01*
X132016Y411982D01*
X132069Y411893D01*
X132118Y411802D01*
X132132Y411788D01*
X132142Y411771D01*
X132221Y411704D01*
X132296Y411632D01*
X132314Y411624D01*
X132329Y411611D01*
X132425Y411572D01*
X132519Y411529D01*
X132539Y411527D01*
X132557Y411519D01*
X132724Y411501D01*
X134279Y411501D01*
X134462Y411318D01*
X134478Y411306D01*
X134490Y411291D01*
X134578Y411234D01*
X134661Y411174D01*
X134680Y411168D01*
X134697Y411158D01*
X134798Y411132D01*
X134897Y411102D01*
X134917Y411102D01*
X134936Y411097D01*
X135039Y411106D01*
X135142Y411108D01*
X135161Y411115D01*
X135181Y411117D01*
X135276Y411157D01*
X135373Y411193D01*
X135389Y411205D01*
X135407Y411213D01*
X135538Y411318D01*
X135721Y411501D01*
X145879Y411501D01*
X147051Y410329D01*
X147051Y405672D01*
X147065Y405582D01*
X147073Y405491D01*
X147085Y405461D01*
X147090Y405429D01*
X147133Y405348D01*
X147169Y405264D01*
X147195Y405232D01*
X147206Y405212D01*
X147229Y405189D01*
X147274Y405133D01*
X151683Y400724D01*
X151757Y400671D01*
X151827Y400611D01*
X151857Y400599D01*
X151883Y400580D01*
X151970Y400553D01*
X152055Y400519D01*
X152096Y400515D01*
X152118Y400508D01*
X152150Y400509D01*
X152222Y400501D01*
X158977Y400501D01*
X160501Y398977D01*
X160501Y387023D01*
X158977Y385499D01*
X152023Y385499D01*
X150499Y387023D01*
X150499Y393778D01*
X150485Y393868D01*
X150477Y393959D01*
X150465Y393989D01*
X150460Y394021D01*
X150417Y394102D01*
X150381Y394186D01*
X150355Y394218D01*
X150344Y394238D01*
X150321Y394261D01*
X150276Y394317D01*
X146317Y398276D01*
X146243Y398329D01*
X146173Y398389D01*
X146143Y398401D01*
X146117Y398420D01*
X146030Y398447D01*
X145945Y398481D01*
X145904Y398485D01*
X145882Y398492D01*
X145850Y398491D01*
X145778Y398499D01*
X144324Y398499D01*
X144304Y398496D01*
X144285Y398498D01*
X144183Y398476D01*
X144081Y398460D01*
X144064Y398450D01*
X144044Y398446D01*
X143955Y398393D01*
X143864Y398344D01*
X143850Y398330D01*
X143833Y398320D01*
X143766Y398241D01*
X143694Y398166D01*
X143686Y398148D01*
X143673Y398133D01*
X143634Y398037D01*
X143591Y397943D01*
X143589Y397923D01*
X143581Y397905D01*
X143563Y397738D01*
X143563Y397262D01*
X143566Y397242D01*
X143564Y397223D01*
X143586Y397121D01*
X143602Y397019D01*
X143612Y397002D01*
X143616Y396982D01*
X143669Y396893D01*
X143718Y396802D01*
X143732Y396788D01*
X143742Y396771D01*
X143821Y396704D01*
X143896Y396632D01*
X143914Y396624D01*
X143929Y396611D01*
X144025Y396572D01*
X144119Y396529D01*
X144139Y396527D01*
X144157Y396519D01*
X144324Y396501D01*
X145879Y396501D01*
X147051Y395329D01*
X147051Y384671D01*
X146442Y384062D01*
X146400Y384004D01*
X146350Y383952D01*
X146329Y383905D01*
X146298Y383863D01*
X146277Y383794D01*
X146247Y383729D01*
X146241Y383677D01*
X146226Y383627D01*
X146228Y383556D01*
X146220Y383485D01*
X146231Y383434D01*
X146232Y383382D01*
X146257Y383314D01*
X146272Y383244D01*
X146299Y383199D01*
X146317Y383151D01*
X146361Y383095D01*
X146398Y383033D01*
X146438Y382999D01*
X146470Y382959D01*
X146531Y382920D01*
X146585Y382873D01*
X146633Y382854D01*
X146677Y382826D01*
X146747Y382808D01*
X146813Y382781D01*
X146885Y382773D01*
X146916Y382765D01*
X146939Y382767D01*
X146980Y382763D01*
X166492Y382763D01*
X166564Y382774D01*
G37*
%LPC*%
G36*
X293136Y240499D02*
X293136Y240499D01*
X290499Y243136D01*
X290499Y246864D01*
X293136Y249501D01*
X296864Y249501D01*
X299501Y246864D01*
X299501Y243136D01*
X296864Y240499D01*
X293136Y240499D01*
G37*
%LPD*%
%LPC*%
G36*
X123136Y240499D02*
X123136Y240499D01*
X120499Y243136D01*
X120499Y246864D01*
X123136Y249501D01*
X126864Y249501D01*
X129501Y246864D01*
X129501Y243136D01*
X126864Y240499D01*
X123136Y240499D01*
G37*
%LPD*%
%LPC*%
G36*
X293333Y570975D02*
X293333Y570975D01*
X290975Y573333D01*
X290975Y576667D01*
X293333Y579025D01*
X296667Y579025D01*
X299025Y576667D01*
X299025Y573333D01*
X296667Y570975D01*
X293333Y570975D01*
G37*
%LPD*%
D10*
X195000Y371000D03*
X195000Y389000D03*
X165000Y429000D03*
X165000Y411000D03*
D11*
X140800Y390000D03*
X129200Y390000D03*
D12*
X190000Y413000D03*
X190000Y457000D03*
D13*
X134730Y313500D02*
X134730Y306500D01*
X127730Y306500D01*
X127730Y313500D01*
X134730Y313500D01*
X134730Y309350D02*
X127730Y309350D01*
X127730Y312200D02*
X134730Y312200D01*
X152270Y313500D02*
X152270Y306500D01*
X145270Y306500D01*
X145270Y313500D01*
X152270Y313500D01*
X152270Y309350D02*
X145270Y309350D01*
X145270Y312200D02*
X152270Y312200D01*
D14*
X197500Y315000D02*
X222500Y315000D01*
D15*
X221250Y255000D02*
X198750Y255000D01*
X257000Y273750D02*
X257000Y296250D01*
D14*
X222500Y505000D02*
X197500Y505000D01*
D15*
X198750Y565000D02*
X221250Y565000D01*
X163000Y546250D02*
X163000Y523750D01*
D16*
X260000Y360000D03*
X260000Y440000D03*
D11*
X140800Y405000D03*
X129200Y405000D03*
X129200Y375000D03*
X140800Y375000D03*
X129200Y335000D03*
X140800Y335000D03*
D17*
X172100Y388100D02*
X172100Y397900D01*
X176900Y397900D01*
X176900Y388100D01*
X172100Y388100D01*
X172100Y389240D02*
X176900Y389240D01*
X176900Y390380D02*
X172100Y390380D01*
X172100Y391520D02*
X176900Y391520D01*
X176900Y392660D02*
X172100Y392660D01*
X172100Y393800D02*
X176900Y393800D01*
X176900Y394940D02*
X172100Y394940D01*
X172100Y396080D02*
X176900Y396080D01*
X176900Y397220D02*
X172100Y397220D01*
X162600Y397900D02*
X162600Y388100D01*
X162600Y397900D02*
X167400Y397900D01*
X167400Y388100D01*
X162600Y388100D01*
X162600Y389240D02*
X167400Y389240D01*
X167400Y390380D02*
X162600Y390380D01*
X162600Y391520D02*
X167400Y391520D01*
X167400Y392660D02*
X162600Y392660D01*
X162600Y393800D02*
X167400Y393800D01*
X167400Y394940D02*
X162600Y394940D01*
X162600Y396080D02*
X167400Y396080D01*
X167400Y397220D02*
X162600Y397220D01*
X153100Y397900D02*
X153100Y388100D01*
X153100Y397900D02*
X157900Y397900D01*
X157900Y388100D01*
X153100Y388100D01*
X153100Y389240D02*
X157900Y389240D01*
X157900Y390380D02*
X153100Y390380D01*
X153100Y391520D02*
X157900Y391520D01*
X157900Y392660D02*
X153100Y392660D01*
X153100Y393800D02*
X157900Y393800D01*
X157900Y394940D02*
X153100Y394940D01*
X153100Y396080D02*
X157900Y396080D01*
X157900Y397220D02*
X153100Y397220D01*
X153100Y371900D02*
X153100Y362100D01*
X153100Y371900D02*
X157900Y371900D01*
X157900Y362100D01*
X153100Y362100D01*
X153100Y363240D02*
X157900Y363240D01*
X157900Y364380D02*
X153100Y364380D01*
X153100Y365520D02*
X157900Y365520D01*
X157900Y366660D02*
X153100Y366660D01*
X153100Y367800D02*
X157900Y367800D01*
X157900Y368940D02*
X153100Y368940D01*
X153100Y370080D02*
X157900Y370080D01*
X157900Y371220D02*
X153100Y371220D01*
X172100Y371900D02*
X172100Y362100D01*
X172100Y371900D02*
X176900Y371900D01*
X176900Y362100D01*
X172100Y362100D01*
X172100Y363240D02*
X176900Y363240D01*
X176900Y364380D02*
X172100Y364380D01*
X172100Y365520D02*
X176900Y365520D01*
X176900Y366660D02*
X172100Y366660D01*
X172100Y367800D02*
X176900Y367800D01*
X176900Y368940D02*
X172100Y368940D01*
X172100Y370080D02*
X176900Y370080D01*
X176900Y371220D02*
X172100Y371220D01*
D18*
X125000Y245000D03*
X295000Y245000D03*
X295000Y575000D03*
D19*
X129200Y390800D02*
X129200Y390000D01*
X129200Y390800D02*
X129200Y405000D01*
X129200Y424200D01*
X134000Y429000D02*
X165000Y429000D01*
X134000Y429000D02*
X129200Y424200D01*
D20*
X120000Y415000D03*
X140000Y415000D03*
X150000Y415000D03*
X210000Y395000D03*
X300000Y395000D03*
X300000Y260000D03*
X120000Y260000D03*
X120000Y365000D03*
D19*
X140800Y405000D02*
X143500Y405000D01*
X155500Y393000D01*
X140800Y390000D02*
X140800Y405000D01*
X140800Y390000D02*
X140800Y375000D01*
X131230Y316230D02*
X131230Y310000D01*
X140800Y325800D02*
X140800Y335000D01*
X140800Y325800D02*
X131230Y316230D01*
M02*
