G04 EAGLE Gerber RS-274X export*
G75*
%MOMM*%
%FSLAX34Y34*%
%LPD*%
%INSilkscreen Top*%
%IPPOS*%
%AMOC8*
5,1,8,0,0,1.08239X$1,22.5*%
G01*
%ADD10C,0.177800*%
%ADD11C,0.101600*%
%ADD12C,0.200000*%
%ADD13C,0.127000*%
%ADD14C,0.076200*%
%ADD15C,0.203200*%
%ADD16C,0.400000*%


D10*
X123801Y279111D02*
X129135Y263109D01*
X134469Y279111D01*
X141640Y279111D02*
X141640Y263109D01*
X139862Y263109D02*
X143418Y263109D01*
X143418Y279111D02*
X139862Y279111D01*
X150221Y279111D02*
X150221Y263109D01*
X159111Y263109D02*
X150221Y279111D01*
X159111Y279111D02*
X159111Y263109D01*
X241223Y470889D02*
X235889Y486891D01*
X246557Y486891D02*
X241223Y470889D01*
X252409Y475334D02*
X252409Y482446D01*
X252411Y482578D01*
X252417Y482709D01*
X252427Y482841D01*
X252440Y482972D01*
X252458Y483102D01*
X252479Y483232D01*
X252504Y483362D01*
X252533Y483490D01*
X252566Y483618D01*
X252603Y483744D01*
X252643Y483870D01*
X252687Y483994D01*
X252735Y484117D01*
X252786Y484238D01*
X252841Y484358D01*
X252899Y484476D01*
X252961Y484592D01*
X253027Y484706D01*
X253095Y484819D01*
X253167Y484929D01*
X253242Y485037D01*
X253321Y485143D01*
X253402Y485247D01*
X253487Y485348D01*
X253574Y485446D01*
X253665Y485542D01*
X253758Y485635D01*
X253854Y485726D01*
X253952Y485813D01*
X254053Y485898D01*
X254157Y485979D01*
X254263Y486058D01*
X254371Y486133D01*
X254481Y486205D01*
X254594Y486273D01*
X254708Y486339D01*
X254824Y486401D01*
X254942Y486459D01*
X255062Y486514D01*
X255183Y486565D01*
X255306Y486613D01*
X255430Y486657D01*
X255556Y486697D01*
X255682Y486734D01*
X255810Y486767D01*
X255938Y486796D01*
X256068Y486821D01*
X256198Y486842D01*
X256328Y486860D01*
X256459Y486873D01*
X256591Y486883D01*
X256722Y486889D01*
X256854Y486891D01*
X256986Y486889D01*
X257117Y486883D01*
X257249Y486873D01*
X257380Y486860D01*
X257510Y486842D01*
X257640Y486821D01*
X257770Y486796D01*
X257898Y486767D01*
X258026Y486734D01*
X258152Y486697D01*
X258278Y486657D01*
X258402Y486613D01*
X258525Y486565D01*
X258646Y486514D01*
X258766Y486459D01*
X258884Y486401D01*
X259000Y486339D01*
X259114Y486273D01*
X259227Y486205D01*
X259337Y486133D01*
X259445Y486058D01*
X259551Y485979D01*
X259655Y485898D01*
X259756Y485813D01*
X259854Y485726D01*
X259950Y485635D01*
X260043Y485542D01*
X260134Y485446D01*
X260221Y485348D01*
X260306Y485247D01*
X260387Y485143D01*
X260466Y485037D01*
X260541Y484929D01*
X260613Y484819D01*
X260681Y484706D01*
X260747Y484592D01*
X260809Y484476D01*
X260867Y484358D01*
X260922Y484238D01*
X260973Y484117D01*
X261021Y483994D01*
X261065Y483870D01*
X261105Y483744D01*
X261142Y483618D01*
X261175Y483490D01*
X261204Y483362D01*
X261229Y483232D01*
X261250Y483102D01*
X261268Y482972D01*
X261281Y482841D01*
X261291Y482709D01*
X261297Y482578D01*
X261299Y482446D01*
X261299Y475334D01*
X261297Y475202D01*
X261291Y475071D01*
X261281Y474939D01*
X261268Y474808D01*
X261250Y474678D01*
X261229Y474548D01*
X261204Y474418D01*
X261175Y474290D01*
X261142Y474162D01*
X261105Y474036D01*
X261065Y473910D01*
X261021Y473786D01*
X260973Y473663D01*
X260922Y473542D01*
X260867Y473422D01*
X260809Y473304D01*
X260747Y473188D01*
X260681Y473074D01*
X260613Y472961D01*
X260541Y472851D01*
X260466Y472743D01*
X260387Y472637D01*
X260306Y472533D01*
X260221Y472432D01*
X260134Y472334D01*
X260043Y472238D01*
X259950Y472145D01*
X259854Y472054D01*
X259756Y471967D01*
X259655Y471882D01*
X259551Y471801D01*
X259445Y471722D01*
X259337Y471647D01*
X259227Y471575D01*
X259114Y471507D01*
X259000Y471441D01*
X258884Y471379D01*
X258766Y471321D01*
X258646Y471266D01*
X258525Y471215D01*
X258402Y471167D01*
X258278Y471123D01*
X258152Y471083D01*
X258026Y471046D01*
X257898Y471013D01*
X257770Y470984D01*
X257640Y470959D01*
X257510Y470938D01*
X257380Y470920D01*
X257249Y470907D01*
X257117Y470897D01*
X256986Y470891D01*
X256854Y470889D01*
X256722Y470891D01*
X256591Y470897D01*
X256459Y470907D01*
X256328Y470920D01*
X256198Y470938D01*
X256068Y470959D01*
X255938Y470984D01*
X255810Y471013D01*
X255682Y471046D01*
X255556Y471083D01*
X255430Y471123D01*
X255306Y471167D01*
X255183Y471215D01*
X255062Y471266D01*
X254942Y471321D01*
X254824Y471379D01*
X254708Y471441D01*
X254594Y471507D01*
X254481Y471575D01*
X254371Y471647D01*
X254263Y471722D01*
X254157Y471801D01*
X254053Y471882D01*
X253952Y471967D01*
X253854Y472054D01*
X253758Y472145D01*
X253665Y472238D01*
X253574Y472334D01*
X253487Y472432D01*
X253402Y472533D01*
X253321Y472637D01*
X253242Y472743D01*
X253167Y472851D01*
X253095Y472961D01*
X253027Y473074D01*
X252961Y473188D01*
X252899Y473304D01*
X252841Y473422D01*
X252786Y473542D01*
X252735Y473663D01*
X252687Y473786D01*
X252643Y473910D01*
X252603Y474036D01*
X252566Y474162D01*
X252533Y474290D01*
X252504Y474418D01*
X252479Y474548D01*
X252458Y474678D01*
X252440Y474808D01*
X252427Y474939D01*
X252417Y475071D01*
X252411Y475202D01*
X252409Y475334D01*
X268562Y475334D02*
X268562Y486891D01*
X268562Y475334D02*
X268564Y475202D01*
X268570Y475071D01*
X268580Y474939D01*
X268593Y474808D01*
X268611Y474678D01*
X268632Y474548D01*
X268657Y474418D01*
X268686Y474290D01*
X268719Y474162D01*
X268756Y474036D01*
X268796Y473910D01*
X268840Y473786D01*
X268888Y473663D01*
X268939Y473542D01*
X268994Y473422D01*
X269052Y473304D01*
X269114Y473188D01*
X269180Y473074D01*
X269248Y472961D01*
X269320Y472851D01*
X269395Y472743D01*
X269474Y472637D01*
X269555Y472533D01*
X269640Y472432D01*
X269727Y472334D01*
X269818Y472238D01*
X269911Y472145D01*
X270007Y472054D01*
X270105Y471967D01*
X270206Y471882D01*
X270310Y471801D01*
X270416Y471722D01*
X270524Y471647D01*
X270634Y471575D01*
X270747Y471507D01*
X270861Y471441D01*
X270977Y471379D01*
X271095Y471321D01*
X271215Y471266D01*
X271336Y471215D01*
X271459Y471167D01*
X271583Y471123D01*
X271709Y471083D01*
X271835Y471046D01*
X271963Y471013D01*
X272091Y470984D01*
X272221Y470959D01*
X272351Y470938D01*
X272481Y470920D01*
X272612Y470907D01*
X272744Y470897D01*
X272875Y470891D01*
X273007Y470889D01*
X273139Y470891D01*
X273270Y470897D01*
X273402Y470907D01*
X273533Y470920D01*
X273663Y470938D01*
X273793Y470959D01*
X273923Y470984D01*
X274051Y471013D01*
X274179Y471046D01*
X274305Y471083D01*
X274431Y471123D01*
X274555Y471167D01*
X274678Y471215D01*
X274799Y471266D01*
X274919Y471321D01*
X275037Y471379D01*
X275153Y471441D01*
X275267Y471507D01*
X275380Y471575D01*
X275490Y471647D01*
X275598Y471722D01*
X275704Y471801D01*
X275808Y471882D01*
X275909Y471967D01*
X276007Y472054D01*
X276103Y472145D01*
X276196Y472238D01*
X276287Y472334D01*
X276374Y472432D01*
X276459Y472533D01*
X276540Y472637D01*
X276619Y472743D01*
X276694Y472851D01*
X276766Y472961D01*
X276834Y473074D01*
X276900Y473188D01*
X276962Y473304D01*
X277020Y473422D01*
X277075Y473542D01*
X277126Y473663D01*
X277174Y473786D01*
X277218Y473910D01*
X277258Y474036D01*
X277295Y474162D01*
X277328Y474290D01*
X277357Y474418D01*
X277382Y474548D01*
X277403Y474678D01*
X277421Y474808D01*
X277434Y474939D01*
X277444Y475071D01*
X277450Y475202D01*
X277452Y475334D01*
X277452Y486891D01*
X288117Y486891D02*
X288117Y470889D01*
X283672Y486891D02*
X292562Y486891D01*
D11*
X192733Y346618D02*
X190736Y346618D01*
X190649Y346620D01*
X190562Y346626D01*
X190475Y346635D01*
X190389Y346648D01*
X190304Y346665D01*
X190219Y346686D01*
X190136Y346710D01*
X190053Y346738D01*
X189972Y346770D01*
X189892Y346805D01*
X189814Y346844D01*
X189738Y346885D01*
X189664Y346931D01*
X189591Y346979D01*
X189521Y347030D01*
X189453Y347085D01*
X189388Y347142D01*
X189325Y347203D01*
X189264Y347266D01*
X189207Y347331D01*
X189152Y347399D01*
X189101Y347469D01*
X189053Y347542D01*
X189007Y347616D01*
X188966Y347692D01*
X188927Y347770D01*
X188892Y347850D01*
X188860Y347931D01*
X188832Y348014D01*
X188808Y348097D01*
X188787Y348182D01*
X188770Y348267D01*
X188757Y348353D01*
X188748Y348440D01*
X188742Y348527D01*
X188740Y348614D01*
X188740Y353606D01*
X188742Y353693D01*
X188748Y353780D01*
X188757Y353867D01*
X188770Y353953D01*
X188787Y354038D01*
X188808Y354123D01*
X188832Y354206D01*
X188860Y354289D01*
X188892Y354370D01*
X188927Y354450D01*
X188966Y354528D01*
X189007Y354604D01*
X189053Y354678D01*
X189101Y354751D01*
X189152Y354821D01*
X189207Y354889D01*
X189264Y354954D01*
X189325Y355017D01*
X189388Y355078D01*
X189453Y355135D01*
X189521Y355190D01*
X189591Y355241D01*
X189664Y355289D01*
X189738Y355335D01*
X189814Y355376D01*
X189892Y355415D01*
X189972Y355450D01*
X190053Y355482D01*
X190136Y355510D01*
X190219Y355534D01*
X190304Y355555D01*
X190389Y355572D01*
X190475Y355585D01*
X190562Y355594D01*
X190649Y355600D01*
X190736Y355602D01*
X192733Y355602D01*
X196269Y353606D02*
X198765Y355602D01*
X198765Y346618D01*
X201260Y346618D02*
X196269Y346618D01*
X162733Y439398D02*
X160736Y439398D01*
X160649Y439400D01*
X160562Y439406D01*
X160475Y439415D01*
X160389Y439428D01*
X160304Y439445D01*
X160219Y439466D01*
X160136Y439490D01*
X160053Y439518D01*
X159972Y439550D01*
X159892Y439585D01*
X159814Y439624D01*
X159738Y439665D01*
X159664Y439711D01*
X159591Y439759D01*
X159521Y439810D01*
X159453Y439865D01*
X159388Y439922D01*
X159325Y439983D01*
X159264Y440046D01*
X159207Y440111D01*
X159152Y440179D01*
X159101Y440249D01*
X159053Y440322D01*
X159007Y440396D01*
X158966Y440472D01*
X158927Y440550D01*
X158892Y440630D01*
X158860Y440711D01*
X158832Y440794D01*
X158808Y440877D01*
X158787Y440962D01*
X158770Y441047D01*
X158757Y441133D01*
X158748Y441220D01*
X158742Y441307D01*
X158740Y441394D01*
X158740Y446386D01*
X158742Y446473D01*
X158748Y446560D01*
X158757Y446647D01*
X158770Y446733D01*
X158787Y446818D01*
X158808Y446903D01*
X158832Y446986D01*
X158860Y447069D01*
X158892Y447150D01*
X158927Y447230D01*
X158966Y447308D01*
X159007Y447384D01*
X159053Y447458D01*
X159101Y447531D01*
X159152Y447601D01*
X159207Y447669D01*
X159264Y447734D01*
X159325Y447797D01*
X159388Y447858D01*
X159453Y447915D01*
X159521Y447970D01*
X159591Y448021D01*
X159664Y448069D01*
X159738Y448115D01*
X159814Y448156D01*
X159892Y448195D01*
X159972Y448230D01*
X160053Y448262D01*
X160136Y448290D01*
X160219Y448314D01*
X160304Y448335D01*
X160389Y448352D01*
X160475Y448365D01*
X160562Y448374D01*
X160649Y448380D01*
X160736Y448382D01*
X162733Y448382D01*
X169014Y448382D02*
X169107Y448380D01*
X169199Y448374D01*
X169292Y448365D01*
X169384Y448351D01*
X169475Y448334D01*
X169565Y448313D01*
X169655Y448289D01*
X169743Y448260D01*
X169830Y448228D01*
X169916Y448193D01*
X170000Y448154D01*
X170083Y448111D01*
X170164Y448065D01*
X170242Y448016D01*
X170319Y447964D01*
X170394Y447908D01*
X170466Y447850D01*
X170535Y447788D01*
X170602Y447724D01*
X170666Y447657D01*
X170728Y447588D01*
X170786Y447516D01*
X170842Y447441D01*
X170894Y447364D01*
X170943Y447286D01*
X170989Y447205D01*
X171032Y447122D01*
X171071Y447038D01*
X171106Y446952D01*
X171138Y446865D01*
X171167Y446777D01*
X171191Y446687D01*
X171212Y446597D01*
X171229Y446506D01*
X171243Y446414D01*
X171252Y446321D01*
X171258Y446229D01*
X171260Y446136D01*
X169014Y448383D02*
X168907Y448381D01*
X168801Y448375D01*
X168694Y448365D01*
X168589Y448351D01*
X168483Y448334D01*
X168379Y448312D01*
X168275Y448287D01*
X168172Y448258D01*
X168071Y448225D01*
X167971Y448188D01*
X167872Y448147D01*
X167775Y448103D01*
X167679Y448056D01*
X167585Y448005D01*
X167494Y447950D01*
X167404Y447892D01*
X167317Y447831D01*
X167231Y447767D01*
X167149Y447699D01*
X167069Y447629D01*
X166991Y447555D01*
X166916Y447479D01*
X166844Y447400D01*
X166776Y447319D01*
X166710Y447235D01*
X166647Y447148D01*
X166588Y447060D01*
X166531Y446969D01*
X166479Y446876D01*
X166429Y446781D01*
X166384Y446685D01*
X166342Y446587D01*
X166303Y446487D01*
X166268Y446386D01*
X170512Y444389D02*
X170582Y444458D01*
X170648Y444529D01*
X170712Y444603D01*
X170772Y444680D01*
X170830Y444759D01*
X170884Y444840D01*
X170934Y444924D01*
X170982Y445009D01*
X171026Y445097D01*
X171066Y445186D01*
X171103Y445276D01*
X171136Y445368D01*
X171165Y445461D01*
X171190Y445556D01*
X171212Y445651D01*
X171229Y445747D01*
X171243Y445844D01*
X171253Y445941D01*
X171259Y446038D01*
X171261Y446136D01*
X170512Y444389D02*
X166269Y439398D01*
X171260Y439398D01*
X132733Y414888D02*
X130736Y414888D01*
X130649Y414890D01*
X130562Y414896D01*
X130475Y414905D01*
X130389Y414918D01*
X130304Y414935D01*
X130219Y414956D01*
X130136Y414980D01*
X130053Y415008D01*
X129972Y415040D01*
X129892Y415075D01*
X129814Y415114D01*
X129738Y415155D01*
X129664Y415201D01*
X129591Y415249D01*
X129521Y415300D01*
X129453Y415355D01*
X129388Y415412D01*
X129325Y415473D01*
X129264Y415536D01*
X129207Y415601D01*
X129152Y415669D01*
X129101Y415739D01*
X129053Y415812D01*
X129007Y415886D01*
X128966Y415962D01*
X128927Y416040D01*
X128892Y416120D01*
X128860Y416201D01*
X128832Y416284D01*
X128808Y416367D01*
X128787Y416452D01*
X128770Y416537D01*
X128757Y416623D01*
X128748Y416710D01*
X128742Y416797D01*
X128740Y416884D01*
X128740Y421876D01*
X128742Y421963D01*
X128748Y422050D01*
X128757Y422137D01*
X128770Y422223D01*
X128787Y422308D01*
X128808Y422393D01*
X128832Y422476D01*
X128860Y422559D01*
X128892Y422640D01*
X128927Y422720D01*
X128966Y422798D01*
X129007Y422874D01*
X129053Y422948D01*
X129101Y423021D01*
X129152Y423091D01*
X129207Y423159D01*
X129264Y423224D01*
X129325Y423287D01*
X129388Y423348D01*
X129453Y423405D01*
X129521Y423460D01*
X129591Y423511D01*
X129664Y423559D01*
X129738Y423605D01*
X129814Y423646D01*
X129892Y423685D01*
X129972Y423720D01*
X130053Y423752D01*
X130136Y423780D01*
X130219Y423804D01*
X130304Y423825D01*
X130389Y423842D01*
X130475Y423855D01*
X130562Y423864D01*
X130649Y423870D01*
X130736Y423872D01*
X132733Y423872D01*
X136269Y414888D02*
X138765Y414888D01*
X138864Y414890D01*
X138963Y414896D01*
X139062Y414906D01*
X139160Y414920D01*
X139258Y414937D01*
X139355Y414959D01*
X139451Y414984D01*
X139546Y415013D01*
X139639Y415046D01*
X139732Y415083D01*
X139822Y415123D01*
X139911Y415167D01*
X139999Y415214D01*
X140084Y415265D01*
X140167Y415319D01*
X140248Y415376D01*
X140327Y415437D01*
X140403Y415501D01*
X140477Y415567D01*
X140547Y415637D01*
X140615Y415709D01*
X140681Y415784D01*
X140743Y415861D01*
X140802Y415941D01*
X140857Y416023D01*
X140910Y416107D01*
X140959Y416194D01*
X141005Y416282D01*
X141047Y416372D01*
X141085Y416463D01*
X141120Y416556D01*
X141151Y416651D01*
X141178Y416746D01*
X141202Y416842D01*
X141221Y416940D01*
X141237Y417038D01*
X141249Y417136D01*
X141257Y417235D01*
X141261Y417334D01*
X141261Y417434D01*
X141257Y417533D01*
X141249Y417632D01*
X141237Y417730D01*
X141221Y417828D01*
X141202Y417926D01*
X141178Y418022D01*
X141151Y418117D01*
X141120Y418212D01*
X141085Y418305D01*
X141047Y418396D01*
X141005Y418486D01*
X140959Y418574D01*
X140910Y418661D01*
X140857Y418745D01*
X140802Y418827D01*
X140743Y418907D01*
X140681Y418984D01*
X140615Y419059D01*
X140547Y419131D01*
X140477Y419201D01*
X140403Y419267D01*
X140327Y419331D01*
X140248Y419392D01*
X140167Y419449D01*
X140084Y419503D01*
X139999Y419554D01*
X139911Y419601D01*
X139822Y419645D01*
X139732Y419685D01*
X139639Y419722D01*
X139546Y419755D01*
X139451Y419784D01*
X139355Y419809D01*
X139258Y419831D01*
X139160Y419848D01*
X139062Y419862D01*
X138963Y419872D01*
X138864Y419878D01*
X138765Y419880D01*
X139264Y423872D02*
X136269Y423872D01*
X139264Y423872D02*
X139352Y423870D01*
X139440Y423864D01*
X139528Y423854D01*
X139615Y423841D01*
X139702Y423823D01*
X139788Y423802D01*
X139872Y423777D01*
X139956Y423748D01*
X140038Y423716D01*
X140119Y423680D01*
X140198Y423640D01*
X140275Y423597D01*
X140350Y423551D01*
X140423Y423501D01*
X140494Y423448D01*
X140562Y423392D01*
X140628Y423333D01*
X140691Y423272D01*
X140751Y423207D01*
X140809Y423140D01*
X140863Y423071D01*
X140914Y422999D01*
X140962Y422925D01*
X141007Y422848D01*
X141048Y422770D01*
X141086Y422691D01*
X141120Y422609D01*
X141151Y422526D01*
X141178Y422442D01*
X141201Y422357D01*
X141221Y422271D01*
X141236Y422184D01*
X141248Y422096D01*
X141256Y422008D01*
X141260Y421920D01*
X141260Y421832D01*
X141256Y421744D01*
X141248Y421656D01*
X141236Y421568D01*
X141221Y421481D01*
X141201Y421395D01*
X141178Y421310D01*
X141151Y421226D01*
X141120Y421143D01*
X141086Y421061D01*
X141048Y420982D01*
X141007Y420904D01*
X140962Y420827D01*
X140914Y420753D01*
X140863Y420681D01*
X140809Y420612D01*
X140751Y420545D01*
X140691Y420480D01*
X140628Y420419D01*
X140562Y420360D01*
X140494Y420304D01*
X140423Y420251D01*
X140350Y420201D01*
X140275Y420155D01*
X140198Y420112D01*
X140119Y420072D01*
X140038Y420036D01*
X139956Y420004D01*
X139872Y419975D01*
X139788Y419950D01*
X139702Y419929D01*
X139615Y419911D01*
X139528Y419898D01*
X139440Y419888D01*
X139352Y419882D01*
X139264Y419880D01*
X139264Y419879D02*
X137268Y419879D01*
D12*
X181000Y461000D03*
D13*
X190000Y431000D02*
X190000Y426000D01*
X182000Y431000D02*
X198000Y431000D01*
X190000Y439000D01*
X182000Y431000D01*
X190000Y440000D02*
X198000Y440000D01*
X190000Y440000D02*
X182000Y440000D01*
X190000Y440000D02*
X190000Y445000D01*
X175000Y457000D02*
X175002Y457063D01*
X175008Y457125D01*
X175018Y457187D01*
X175031Y457249D01*
X175049Y457309D01*
X175070Y457368D01*
X175095Y457426D01*
X175124Y457482D01*
X175156Y457536D01*
X175191Y457588D01*
X175229Y457637D01*
X175271Y457685D01*
X175315Y457729D01*
X175363Y457771D01*
X175412Y457809D01*
X175464Y457844D01*
X175518Y457876D01*
X175574Y457905D01*
X175632Y457930D01*
X175691Y457951D01*
X175751Y457969D01*
X175813Y457982D01*
X175875Y457992D01*
X175937Y457998D01*
X176000Y458000D01*
X176063Y457998D01*
X176125Y457992D01*
X176187Y457982D01*
X176249Y457969D01*
X176309Y457951D01*
X176368Y457930D01*
X176426Y457905D01*
X176482Y457876D01*
X176536Y457844D01*
X176588Y457809D01*
X176637Y457771D01*
X176685Y457729D01*
X176729Y457685D01*
X176771Y457637D01*
X176809Y457588D01*
X176844Y457536D01*
X176876Y457482D01*
X176905Y457426D01*
X176930Y457368D01*
X176951Y457309D01*
X176969Y457249D01*
X176982Y457187D01*
X176992Y457125D01*
X176998Y457063D01*
X177000Y457000D01*
X176998Y456937D01*
X176992Y456875D01*
X176982Y456813D01*
X176969Y456751D01*
X176951Y456691D01*
X176930Y456632D01*
X176905Y456574D01*
X176876Y456518D01*
X176844Y456464D01*
X176809Y456412D01*
X176771Y456363D01*
X176729Y456315D01*
X176685Y456271D01*
X176637Y456229D01*
X176588Y456191D01*
X176536Y456156D01*
X176482Y456124D01*
X176426Y456095D01*
X176368Y456070D01*
X176309Y456049D01*
X176249Y456031D01*
X176187Y456018D01*
X176125Y456008D01*
X176063Y456002D01*
X176000Y456000D01*
X175937Y456002D01*
X175875Y456008D01*
X175813Y456018D01*
X175751Y456031D01*
X175691Y456049D01*
X175632Y456070D01*
X175574Y456095D01*
X175518Y456124D01*
X175464Y456156D01*
X175412Y456191D01*
X175363Y456229D01*
X175315Y456271D01*
X175271Y456315D01*
X175229Y456363D01*
X175191Y456412D01*
X175156Y456464D01*
X175124Y456518D01*
X175095Y456574D01*
X175070Y456632D01*
X175049Y456691D01*
X175031Y456751D01*
X175018Y456813D01*
X175008Y456875D01*
X175002Y456937D01*
X175000Y457000D01*
D14*
X183381Y472381D02*
X183381Y481619D01*
X185947Y481619D01*
X186045Y481617D01*
X186143Y481611D01*
X186241Y481602D01*
X186339Y481589D01*
X186436Y481572D01*
X186532Y481552D01*
X186627Y481527D01*
X186721Y481499D01*
X186814Y481468D01*
X186906Y481433D01*
X186997Y481394D01*
X187086Y481353D01*
X187173Y481307D01*
X187258Y481259D01*
X187342Y481207D01*
X187423Y481152D01*
X187503Y481094D01*
X187580Y481033D01*
X187654Y480969D01*
X187726Y480902D01*
X187796Y480832D01*
X187863Y480760D01*
X187927Y480686D01*
X187988Y480609D01*
X188046Y480529D01*
X188101Y480448D01*
X188153Y480364D01*
X188201Y480279D01*
X188247Y480192D01*
X188288Y480103D01*
X188327Y480012D01*
X188362Y479920D01*
X188393Y479827D01*
X188421Y479733D01*
X188446Y479638D01*
X188466Y479542D01*
X188483Y479445D01*
X188496Y479347D01*
X188505Y479249D01*
X188511Y479151D01*
X188513Y479053D01*
X188513Y474947D01*
X188511Y474849D01*
X188505Y474751D01*
X188496Y474653D01*
X188483Y474555D01*
X188466Y474458D01*
X188446Y474362D01*
X188421Y474267D01*
X188393Y474173D01*
X188362Y474080D01*
X188327Y473988D01*
X188288Y473897D01*
X188247Y473808D01*
X188201Y473721D01*
X188153Y473636D01*
X188101Y473552D01*
X188046Y473471D01*
X187988Y473391D01*
X187927Y473314D01*
X187863Y473240D01*
X187796Y473168D01*
X187726Y473098D01*
X187654Y473031D01*
X187580Y472967D01*
X187503Y472906D01*
X187423Y472848D01*
X187342Y472793D01*
X187258Y472741D01*
X187173Y472693D01*
X187086Y472647D01*
X186997Y472606D01*
X186906Y472567D01*
X186814Y472532D01*
X186721Y472501D01*
X186627Y472473D01*
X186532Y472448D01*
X186436Y472428D01*
X186339Y472411D01*
X186241Y472398D01*
X186143Y472389D01*
X186045Y472383D01*
X185947Y472381D01*
X183381Y472381D01*
X192681Y479566D02*
X195247Y481619D01*
X195247Y472381D01*
X192681Y472381D02*
X197813Y472381D01*
D15*
X124125Y314763D02*
X124125Y305238D01*
D11*
X127854Y300842D02*
X127854Y291858D01*
X127854Y300842D02*
X130350Y300842D01*
X130448Y300840D01*
X130546Y300834D01*
X130643Y300825D01*
X130740Y300811D01*
X130837Y300794D01*
X130933Y300773D01*
X131028Y300748D01*
X131121Y300720D01*
X131214Y300688D01*
X131305Y300652D01*
X131395Y300613D01*
X131483Y300570D01*
X131570Y300524D01*
X131654Y300474D01*
X131737Y300421D01*
X131817Y300365D01*
X131895Y300306D01*
X131971Y300244D01*
X132044Y300179D01*
X132115Y300111D01*
X132183Y300040D01*
X132248Y299967D01*
X132310Y299891D01*
X132369Y299813D01*
X132425Y299733D01*
X132478Y299650D01*
X132528Y299566D01*
X132574Y299479D01*
X132617Y299391D01*
X132656Y299301D01*
X132692Y299210D01*
X132724Y299117D01*
X132752Y299024D01*
X132777Y298929D01*
X132798Y298833D01*
X132815Y298736D01*
X132829Y298639D01*
X132838Y298542D01*
X132844Y298444D01*
X132846Y298346D01*
X132846Y294354D01*
X132844Y294256D01*
X132838Y294158D01*
X132829Y294061D01*
X132815Y293964D01*
X132798Y293867D01*
X132777Y293771D01*
X132752Y293676D01*
X132724Y293583D01*
X132692Y293490D01*
X132656Y293399D01*
X132617Y293309D01*
X132574Y293221D01*
X132528Y293134D01*
X132478Y293050D01*
X132425Y292967D01*
X132369Y292887D01*
X132310Y292809D01*
X132248Y292733D01*
X132183Y292660D01*
X132115Y292589D01*
X132044Y292521D01*
X131971Y292456D01*
X131895Y292394D01*
X131817Y292335D01*
X131737Y292279D01*
X131654Y292226D01*
X131570Y292176D01*
X131483Y292130D01*
X131395Y292087D01*
X131305Y292048D01*
X131214Y292012D01*
X131121Y291980D01*
X131027Y291952D01*
X130933Y291927D01*
X130837Y291906D01*
X130740Y291889D01*
X130643Y291875D01*
X130546Y291866D01*
X130448Y291860D01*
X130350Y291858D01*
X127854Y291858D01*
X139900Y300842D02*
X139993Y300840D01*
X140085Y300834D01*
X140178Y300825D01*
X140270Y300811D01*
X140361Y300794D01*
X140451Y300773D01*
X140541Y300749D01*
X140629Y300720D01*
X140716Y300688D01*
X140802Y300653D01*
X140886Y300614D01*
X140969Y300571D01*
X141050Y300525D01*
X141128Y300476D01*
X141205Y300424D01*
X141280Y300368D01*
X141352Y300310D01*
X141421Y300248D01*
X141488Y300184D01*
X141552Y300117D01*
X141614Y300048D01*
X141672Y299976D01*
X141728Y299901D01*
X141780Y299824D01*
X141829Y299746D01*
X141875Y299665D01*
X141918Y299582D01*
X141957Y299498D01*
X141992Y299412D01*
X142024Y299325D01*
X142053Y299237D01*
X142077Y299147D01*
X142098Y299057D01*
X142115Y298966D01*
X142129Y298874D01*
X142138Y298781D01*
X142144Y298689D01*
X142146Y298596D01*
X139900Y300843D02*
X139793Y300841D01*
X139687Y300835D01*
X139580Y300825D01*
X139475Y300811D01*
X139369Y300794D01*
X139265Y300772D01*
X139161Y300747D01*
X139058Y300718D01*
X138957Y300685D01*
X138857Y300648D01*
X138758Y300607D01*
X138661Y300563D01*
X138565Y300516D01*
X138471Y300465D01*
X138380Y300410D01*
X138290Y300352D01*
X138203Y300291D01*
X138117Y300227D01*
X138035Y300159D01*
X137955Y300089D01*
X137877Y300015D01*
X137802Y299939D01*
X137730Y299860D01*
X137662Y299779D01*
X137596Y299695D01*
X137533Y299608D01*
X137474Y299520D01*
X137417Y299429D01*
X137365Y299336D01*
X137315Y299241D01*
X137270Y299145D01*
X137228Y299047D01*
X137189Y298947D01*
X137154Y298846D01*
X141397Y296849D02*
X141467Y296918D01*
X141533Y296989D01*
X141597Y297063D01*
X141657Y297140D01*
X141715Y297219D01*
X141769Y297300D01*
X141819Y297384D01*
X141867Y297469D01*
X141911Y297557D01*
X141951Y297646D01*
X141988Y297736D01*
X142021Y297828D01*
X142050Y297921D01*
X142075Y298016D01*
X142097Y298111D01*
X142114Y298207D01*
X142128Y298304D01*
X142138Y298401D01*
X142144Y298498D01*
X142146Y298596D01*
X141397Y296849D02*
X137154Y291858D01*
X142146Y291858D01*
D13*
X165000Y178000D02*
X255000Y178000D01*
X165000Y178000D02*
X165000Y322000D01*
X255000Y322000D02*
X255000Y310500D01*
X183500Y322000D02*
X165000Y322000D01*
X255000Y259500D02*
X255000Y178000D01*
X255000Y322000D02*
X235500Y322000D01*
D16*
X208000Y335000D02*
X208002Y335089D01*
X208008Y335178D01*
X208018Y335267D01*
X208032Y335355D01*
X208049Y335442D01*
X208071Y335528D01*
X208097Y335614D01*
X208126Y335698D01*
X208159Y335781D01*
X208195Y335862D01*
X208236Y335942D01*
X208279Y336019D01*
X208326Y336095D01*
X208377Y336168D01*
X208430Y336239D01*
X208487Y336308D01*
X208547Y336374D01*
X208610Y336438D01*
X208675Y336498D01*
X208743Y336556D01*
X208814Y336610D01*
X208887Y336661D01*
X208962Y336709D01*
X209039Y336754D01*
X209118Y336795D01*
X209199Y336832D01*
X209281Y336866D01*
X209365Y336897D01*
X209450Y336923D01*
X209536Y336946D01*
X209623Y336964D01*
X209711Y336979D01*
X209800Y336990D01*
X209889Y336997D01*
X209978Y337000D01*
X210067Y336999D01*
X210156Y336994D01*
X210244Y336985D01*
X210333Y336972D01*
X210420Y336955D01*
X210507Y336935D01*
X210593Y336910D01*
X210677Y336882D01*
X210760Y336850D01*
X210842Y336814D01*
X210922Y336775D01*
X211000Y336732D01*
X211076Y336686D01*
X211150Y336636D01*
X211222Y336583D01*
X211291Y336527D01*
X211358Y336468D01*
X211422Y336406D01*
X211483Y336342D01*
X211542Y336274D01*
X211597Y336204D01*
X211649Y336132D01*
X211698Y336057D01*
X211743Y335981D01*
X211785Y335902D01*
X211823Y335822D01*
X211858Y335740D01*
X211889Y335656D01*
X211917Y335571D01*
X211940Y335485D01*
X211960Y335398D01*
X211976Y335311D01*
X211988Y335222D01*
X211996Y335134D01*
X212000Y335045D01*
X212000Y334955D01*
X211996Y334866D01*
X211988Y334778D01*
X211976Y334689D01*
X211960Y334602D01*
X211940Y334515D01*
X211917Y334429D01*
X211889Y334344D01*
X211858Y334260D01*
X211823Y334178D01*
X211785Y334098D01*
X211743Y334019D01*
X211698Y333943D01*
X211649Y333868D01*
X211597Y333796D01*
X211542Y333726D01*
X211483Y333658D01*
X211422Y333594D01*
X211358Y333532D01*
X211291Y333473D01*
X211222Y333417D01*
X211150Y333364D01*
X211076Y333314D01*
X211000Y333268D01*
X210922Y333225D01*
X210842Y333186D01*
X210760Y333150D01*
X210677Y333118D01*
X210593Y333090D01*
X210507Y333065D01*
X210420Y333045D01*
X210333Y333028D01*
X210244Y333015D01*
X210156Y333006D01*
X210067Y333001D01*
X209978Y333000D01*
X209889Y333003D01*
X209800Y333010D01*
X209711Y333021D01*
X209623Y333036D01*
X209536Y333054D01*
X209450Y333077D01*
X209365Y333103D01*
X209281Y333134D01*
X209199Y333168D01*
X209118Y333205D01*
X209039Y333246D01*
X208962Y333291D01*
X208887Y333339D01*
X208814Y333390D01*
X208743Y333444D01*
X208675Y333502D01*
X208610Y333562D01*
X208547Y333626D01*
X208487Y333692D01*
X208430Y333761D01*
X208377Y333832D01*
X208326Y333905D01*
X208279Y333981D01*
X208236Y334058D01*
X208195Y334138D01*
X208159Y334219D01*
X208126Y334302D01*
X208097Y334386D01*
X208071Y334472D01*
X208049Y334558D01*
X208032Y334645D01*
X208018Y334733D01*
X208008Y334822D01*
X208002Y334911D01*
X208000Y335000D01*
D11*
X266597Y325843D02*
X266597Y318855D01*
X266595Y318768D01*
X266589Y318681D01*
X266580Y318594D01*
X266567Y318508D01*
X266550Y318423D01*
X266529Y318338D01*
X266505Y318255D01*
X266477Y318172D01*
X266445Y318091D01*
X266410Y318011D01*
X266371Y317933D01*
X266330Y317857D01*
X266284Y317783D01*
X266236Y317710D01*
X266185Y317640D01*
X266130Y317572D01*
X266073Y317507D01*
X266012Y317444D01*
X265949Y317383D01*
X265884Y317326D01*
X265816Y317271D01*
X265746Y317220D01*
X265673Y317172D01*
X265599Y317126D01*
X265523Y317085D01*
X265445Y317046D01*
X265365Y317011D01*
X265284Y316979D01*
X265201Y316951D01*
X265118Y316927D01*
X265033Y316906D01*
X264948Y316889D01*
X264862Y316876D01*
X264775Y316867D01*
X264688Y316861D01*
X264601Y316859D01*
X263602Y316859D01*
X270864Y323846D02*
X273360Y325843D01*
X273360Y316859D01*
X275855Y316859D02*
X270864Y316859D01*
D13*
X255000Y642000D02*
X165000Y642000D01*
X255000Y642000D02*
X255000Y498000D01*
X165000Y498000D02*
X165000Y509500D01*
X236500Y498000D02*
X255000Y498000D01*
X165000Y560500D02*
X165000Y642000D01*
X165000Y498000D02*
X184500Y498000D01*
D16*
X208000Y485000D02*
X208002Y485089D01*
X208008Y485178D01*
X208018Y485267D01*
X208032Y485355D01*
X208049Y485442D01*
X208071Y485528D01*
X208097Y485614D01*
X208126Y485698D01*
X208159Y485781D01*
X208195Y485862D01*
X208236Y485942D01*
X208279Y486019D01*
X208326Y486095D01*
X208377Y486168D01*
X208430Y486239D01*
X208487Y486308D01*
X208547Y486374D01*
X208610Y486438D01*
X208675Y486498D01*
X208743Y486556D01*
X208814Y486610D01*
X208887Y486661D01*
X208962Y486709D01*
X209039Y486754D01*
X209118Y486795D01*
X209199Y486832D01*
X209281Y486866D01*
X209365Y486897D01*
X209450Y486923D01*
X209536Y486946D01*
X209623Y486964D01*
X209711Y486979D01*
X209800Y486990D01*
X209889Y486997D01*
X209978Y487000D01*
X210067Y486999D01*
X210156Y486994D01*
X210244Y486985D01*
X210333Y486972D01*
X210420Y486955D01*
X210507Y486935D01*
X210593Y486910D01*
X210677Y486882D01*
X210760Y486850D01*
X210842Y486814D01*
X210922Y486775D01*
X211000Y486732D01*
X211076Y486686D01*
X211150Y486636D01*
X211222Y486583D01*
X211291Y486527D01*
X211358Y486468D01*
X211422Y486406D01*
X211483Y486342D01*
X211542Y486274D01*
X211597Y486204D01*
X211649Y486132D01*
X211698Y486057D01*
X211743Y485981D01*
X211785Y485902D01*
X211823Y485822D01*
X211858Y485740D01*
X211889Y485656D01*
X211917Y485571D01*
X211940Y485485D01*
X211960Y485398D01*
X211976Y485311D01*
X211988Y485222D01*
X211996Y485134D01*
X212000Y485045D01*
X212000Y484955D01*
X211996Y484866D01*
X211988Y484778D01*
X211976Y484689D01*
X211960Y484602D01*
X211940Y484515D01*
X211917Y484429D01*
X211889Y484344D01*
X211858Y484260D01*
X211823Y484178D01*
X211785Y484098D01*
X211743Y484019D01*
X211698Y483943D01*
X211649Y483868D01*
X211597Y483796D01*
X211542Y483726D01*
X211483Y483658D01*
X211422Y483594D01*
X211358Y483532D01*
X211291Y483473D01*
X211222Y483417D01*
X211150Y483364D01*
X211076Y483314D01*
X211000Y483268D01*
X210922Y483225D01*
X210842Y483186D01*
X210760Y483150D01*
X210677Y483118D01*
X210593Y483090D01*
X210507Y483065D01*
X210420Y483045D01*
X210333Y483028D01*
X210244Y483015D01*
X210156Y483006D01*
X210067Y483001D01*
X209978Y483000D01*
X209889Y483003D01*
X209800Y483010D01*
X209711Y483021D01*
X209623Y483036D01*
X209536Y483054D01*
X209450Y483077D01*
X209365Y483103D01*
X209281Y483134D01*
X209199Y483168D01*
X209118Y483205D01*
X209039Y483246D01*
X208962Y483291D01*
X208887Y483339D01*
X208814Y483390D01*
X208743Y483444D01*
X208675Y483502D01*
X208610Y483562D01*
X208547Y483626D01*
X208487Y483692D01*
X208430Y483761D01*
X208377Y483832D01*
X208326Y483905D01*
X208279Y483981D01*
X208236Y484058D01*
X208195Y484138D01*
X208159Y484219D01*
X208126Y484302D01*
X208097Y484386D01*
X208071Y484472D01*
X208049Y484558D01*
X208032Y484645D01*
X208018Y484733D01*
X208008Y484822D01*
X208002Y484911D01*
X208000Y485000D01*
D11*
X147139Y496154D02*
X147139Y503141D01*
X147139Y496154D02*
X147137Y496067D01*
X147131Y495980D01*
X147122Y495893D01*
X147109Y495807D01*
X147092Y495722D01*
X147071Y495637D01*
X147047Y495554D01*
X147019Y495471D01*
X146987Y495390D01*
X146952Y495310D01*
X146913Y495232D01*
X146872Y495156D01*
X146826Y495082D01*
X146778Y495009D01*
X146727Y494939D01*
X146672Y494871D01*
X146615Y494806D01*
X146554Y494743D01*
X146491Y494682D01*
X146426Y494625D01*
X146358Y494570D01*
X146288Y494519D01*
X146215Y494471D01*
X146141Y494425D01*
X146065Y494384D01*
X145987Y494345D01*
X145907Y494310D01*
X145826Y494278D01*
X145743Y494250D01*
X145660Y494226D01*
X145575Y494205D01*
X145490Y494188D01*
X145404Y494175D01*
X145317Y494166D01*
X145230Y494160D01*
X145143Y494158D01*
X145143Y494157D02*
X144145Y494157D01*
X154152Y503141D02*
X154245Y503139D01*
X154337Y503133D01*
X154430Y503124D01*
X154522Y503110D01*
X154613Y503093D01*
X154703Y503072D01*
X154793Y503048D01*
X154881Y503019D01*
X154968Y502987D01*
X155054Y502952D01*
X155138Y502913D01*
X155221Y502870D01*
X155302Y502824D01*
X155380Y502775D01*
X155457Y502723D01*
X155532Y502667D01*
X155604Y502609D01*
X155673Y502547D01*
X155740Y502483D01*
X155804Y502416D01*
X155866Y502347D01*
X155924Y502275D01*
X155980Y502200D01*
X156032Y502123D01*
X156081Y502045D01*
X156127Y501964D01*
X156170Y501881D01*
X156209Y501797D01*
X156244Y501711D01*
X156276Y501624D01*
X156305Y501536D01*
X156329Y501446D01*
X156350Y501356D01*
X156367Y501265D01*
X156381Y501173D01*
X156390Y501080D01*
X156396Y500988D01*
X156398Y500895D01*
X154152Y503142D02*
X154045Y503140D01*
X153939Y503134D01*
X153832Y503124D01*
X153727Y503110D01*
X153621Y503093D01*
X153517Y503071D01*
X153413Y503046D01*
X153310Y503017D01*
X153209Y502984D01*
X153109Y502947D01*
X153010Y502906D01*
X152913Y502862D01*
X152817Y502815D01*
X152723Y502764D01*
X152632Y502709D01*
X152542Y502651D01*
X152455Y502590D01*
X152369Y502526D01*
X152287Y502458D01*
X152207Y502388D01*
X152129Y502314D01*
X152054Y502238D01*
X151982Y502159D01*
X151914Y502078D01*
X151848Y501994D01*
X151785Y501907D01*
X151726Y501819D01*
X151669Y501728D01*
X151617Y501635D01*
X151567Y501540D01*
X151522Y501444D01*
X151480Y501346D01*
X151441Y501246D01*
X151406Y501145D01*
X155649Y499148D02*
X155719Y499217D01*
X155785Y499288D01*
X155849Y499362D01*
X155909Y499439D01*
X155967Y499518D01*
X156021Y499599D01*
X156071Y499683D01*
X156119Y499768D01*
X156163Y499856D01*
X156203Y499945D01*
X156240Y500035D01*
X156273Y500127D01*
X156302Y500220D01*
X156327Y500315D01*
X156349Y500410D01*
X156366Y500506D01*
X156380Y500603D01*
X156390Y500700D01*
X156396Y500797D01*
X156398Y500895D01*
X155649Y499148D02*
X151407Y494157D01*
X156398Y494157D01*
D13*
X210000Y400000D02*
X210015Y401227D01*
X210060Y402453D01*
X210135Y403678D01*
X210241Y404901D01*
X210376Y406121D01*
X210541Y407337D01*
X210736Y408548D01*
X210961Y409755D01*
X211215Y410955D01*
X211498Y412149D01*
X211811Y413336D01*
X212153Y414514D01*
X212524Y415684D01*
X212923Y416844D01*
X213350Y417995D01*
X213806Y419134D01*
X214290Y420262D01*
X214801Y421378D01*
X215339Y422481D01*
X215904Y423570D01*
X216496Y424645D01*
X217114Y425705D01*
X217757Y426750D01*
X218427Y427779D01*
X219121Y428790D01*
X219840Y429785D01*
X220583Y430762D01*
X221349Y431720D01*
X222140Y432659D01*
X222952Y433578D01*
X223788Y434477D01*
X224645Y435355D01*
X225523Y436212D01*
X226422Y437048D01*
X227341Y437860D01*
X228280Y438651D01*
X229238Y439417D01*
X230215Y440160D01*
X231210Y440879D01*
X232221Y441573D01*
X233250Y442243D01*
X234295Y442886D01*
X235355Y443504D01*
X236430Y444096D01*
X237519Y444661D01*
X238622Y445199D01*
X239738Y445710D01*
X240866Y446194D01*
X242005Y446650D01*
X243156Y447077D01*
X244316Y447476D01*
X245486Y447847D01*
X246664Y448189D01*
X247851Y448502D01*
X249045Y448785D01*
X250245Y449039D01*
X251452Y449264D01*
X252663Y449459D01*
X253879Y449624D01*
X255099Y449759D01*
X256322Y449865D01*
X257547Y449940D01*
X258773Y449985D01*
X260000Y450000D01*
X261227Y449985D01*
X262453Y449940D01*
X263678Y449865D01*
X264901Y449759D01*
X266121Y449624D01*
X267337Y449459D01*
X268548Y449264D01*
X269755Y449039D01*
X270955Y448785D01*
X272149Y448502D01*
X273336Y448189D01*
X274514Y447847D01*
X275684Y447476D01*
X276844Y447077D01*
X277995Y446650D01*
X279134Y446194D01*
X280262Y445710D01*
X281378Y445199D01*
X282481Y444661D01*
X283570Y444096D01*
X284645Y443504D01*
X285705Y442886D01*
X286750Y442243D01*
X287779Y441573D01*
X288790Y440879D01*
X289785Y440160D01*
X290762Y439417D01*
X291720Y438651D01*
X292659Y437860D01*
X293578Y437048D01*
X294477Y436212D01*
X295355Y435355D01*
X296212Y434477D01*
X297048Y433578D01*
X297860Y432659D01*
X298651Y431720D01*
X299417Y430762D01*
X300160Y429785D01*
X300879Y428790D01*
X301573Y427779D01*
X302243Y426750D01*
X302886Y425705D01*
X303504Y424645D01*
X304096Y423570D01*
X304661Y422481D01*
X305199Y421378D01*
X305710Y420262D01*
X306194Y419134D01*
X306650Y417995D01*
X307077Y416844D01*
X307476Y415684D01*
X307847Y414514D01*
X308189Y413336D01*
X308502Y412149D01*
X308785Y410955D01*
X309039Y409755D01*
X309264Y408548D01*
X309459Y407337D01*
X309624Y406121D01*
X309759Y404901D01*
X309865Y403678D01*
X309940Y402453D01*
X309985Y401227D01*
X310000Y400000D01*
X309985Y398773D01*
X309940Y397547D01*
X309865Y396322D01*
X309759Y395099D01*
X309624Y393879D01*
X309459Y392663D01*
X309264Y391452D01*
X309039Y390245D01*
X308785Y389045D01*
X308502Y387851D01*
X308189Y386664D01*
X307847Y385486D01*
X307476Y384316D01*
X307077Y383156D01*
X306650Y382005D01*
X306194Y380866D01*
X305710Y379738D01*
X305199Y378622D01*
X304661Y377519D01*
X304096Y376430D01*
X303504Y375355D01*
X302886Y374295D01*
X302243Y373250D01*
X301573Y372221D01*
X300879Y371210D01*
X300160Y370215D01*
X299417Y369238D01*
X298651Y368280D01*
X297860Y367341D01*
X297048Y366422D01*
X296212Y365523D01*
X295355Y364645D01*
X294477Y363788D01*
X293578Y362952D01*
X292659Y362140D01*
X291720Y361349D01*
X290762Y360583D01*
X289785Y359840D01*
X288790Y359121D01*
X287779Y358427D01*
X286750Y357757D01*
X285705Y357114D01*
X284645Y356496D01*
X283570Y355904D01*
X282481Y355339D01*
X281378Y354801D01*
X280262Y354290D01*
X279134Y353806D01*
X277995Y353350D01*
X276844Y352923D01*
X275684Y352524D01*
X274514Y352153D01*
X273336Y351811D01*
X272149Y351498D01*
X270955Y351215D01*
X269755Y350961D01*
X268548Y350736D01*
X267337Y350541D01*
X266121Y350376D01*
X264901Y350241D01*
X263678Y350135D01*
X262453Y350060D01*
X261227Y350015D01*
X260000Y350000D01*
X258773Y350015D01*
X257547Y350060D01*
X256322Y350135D01*
X255099Y350241D01*
X253879Y350376D01*
X252663Y350541D01*
X251452Y350736D01*
X250245Y350961D01*
X249045Y351215D01*
X247851Y351498D01*
X246664Y351811D01*
X245486Y352153D01*
X244316Y352524D01*
X243156Y352923D01*
X242005Y353350D01*
X240866Y353806D01*
X239738Y354290D01*
X238622Y354801D01*
X237519Y355339D01*
X236430Y355904D01*
X235355Y356496D01*
X234295Y357114D01*
X233250Y357757D01*
X232221Y358427D01*
X231210Y359121D01*
X230215Y359840D01*
X229238Y360583D01*
X228280Y361349D01*
X227341Y362140D01*
X226422Y362952D01*
X225523Y363788D01*
X224645Y364645D01*
X223788Y365523D01*
X222952Y366422D01*
X222140Y367341D01*
X221349Y368280D01*
X220583Y369238D01*
X219840Y370215D01*
X219121Y371210D01*
X218427Y372221D01*
X217757Y373250D01*
X217114Y374295D01*
X216496Y375355D01*
X215904Y376430D01*
X215339Y377519D01*
X214801Y378622D01*
X214290Y379738D01*
X213806Y380866D01*
X213350Y382005D01*
X212923Y383156D01*
X212524Y384316D01*
X212153Y385486D01*
X211811Y386664D01*
X211498Y387851D01*
X211215Y389045D01*
X210961Y390245D01*
X210736Y391452D01*
X210541Y392663D01*
X210376Y393879D01*
X210241Y395099D01*
X210135Y396322D01*
X210060Y397547D01*
X210015Y398773D01*
X210000Y400000D01*
D11*
X208621Y443508D02*
X208621Y452492D01*
X208621Y443508D02*
X212614Y443508D01*
X216101Y450496D02*
X218596Y452492D01*
X218596Y443508D01*
X216101Y443508D02*
X221092Y443508D01*
X128037Y437112D02*
X128037Y428128D01*
X128037Y437112D02*
X130533Y437112D01*
X130632Y437110D01*
X130731Y437104D01*
X130830Y437094D01*
X130928Y437080D01*
X131026Y437063D01*
X131123Y437041D01*
X131219Y437016D01*
X131314Y436987D01*
X131407Y436954D01*
X131500Y436917D01*
X131590Y436877D01*
X131679Y436833D01*
X131767Y436786D01*
X131852Y436735D01*
X131935Y436681D01*
X132016Y436624D01*
X132095Y436563D01*
X132171Y436499D01*
X132245Y436433D01*
X132315Y436363D01*
X132383Y436291D01*
X132449Y436216D01*
X132511Y436139D01*
X132570Y436059D01*
X132625Y435977D01*
X132678Y435893D01*
X132727Y435806D01*
X132773Y435718D01*
X132815Y435628D01*
X132853Y435537D01*
X132888Y435444D01*
X132919Y435349D01*
X132946Y435254D01*
X132970Y435158D01*
X132989Y435060D01*
X133005Y434962D01*
X133017Y434864D01*
X133025Y434765D01*
X133029Y434666D01*
X133029Y434566D01*
X133025Y434467D01*
X133017Y434368D01*
X133005Y434270D01*
X132989Y434172D01*
X132970Y434074D01*
X132946Y433978D01*
X132919Y433883D01*
X132888Y433788D01*
X132853Y433695D01*
X132815Y433604D01*
X132773Y433514D01*
X132727Y433426D01*
X132678Y433339D01*
X132625Y433255D01*
X132570Y433173D01*
X132511Y433093D01*
X132449Y433016D01*
X132383Y432941D01*
X132315Y432869D01*
X132245Y432799D01*
X132171Y432733D01*
X132095Y432669D01*
X132016Y432608D01*
X131935Y432551D01*
X131852Y432497D01*
X131767Y432446D01*
X131679Y432399D01*
X131590Y432355D01*
X131500Y432315D01*
X131407Y432278D01*
X131314Y432245D01*
X131219Y432216D01*
X131123Y432191D01*
X131026Y432169D01*
X130928Y432152D01*
X130830Y432138D01*
X130731Y432128D01*
X130632Y432122D01*
X130533Y432120D01*
X130533Y432121D02*
X128037Y432121D01*
X131032Y432121D02*
X133028Y428128D01*
X136972Y435116D02*
X139467Y437112D01*
X139467Y428128D01*
X136972Y428128D02*
X141963Y428128D01*
X128037Y366872D02*
X128037Y357888D01*
X128037Y366872D02*
X130533Y366872D01*
X130632Y366870D01*
X130731Y366864D01*
X130830Y366854D01*
X130928Y366840D01*
X131026Y366823D01*
X131123Y366801D01*
X131219Y366776D01*
X131314Y366747D01*
X131407Y366714D01*
X131500Y366677D01*
X131590Y366637D01*
X131679Y366593D01*
X131767Y366546D01*
X131852Y366495D01*
X131935Y366441D01*
X132016Y366384D01*
X132095Y366323D01*
X132171Y366259D01*
X132245Y366193D01*
X132315Y366123D01*
X132383Y366051D01*
X132449Y365976D01*
X132511Y365899D01*
X132570Y365819D01*
X132625Y365737D01*
X132678Y365653D01*
X132727Y365566D01*
X132773Y365478D01*
X132815Y365388D01*
X132853Y365297D01*
X132888Y365204D01*
X132919Y365109D01*
X132946Y365014D01*
X132970Y364918D01*
X132989Y364820D01*
X133005Y364722D01*
X133017Y364624D01*
X133025Y364525D01*
X133029Y364426D01*
X133029Y364326D01*
X133025Y364227D01*
X133017Y364128D01*
X133005Y364030D01*
X132989Y363932D01*
X132970Y363834D01*
X132946Y363738D01*
X132919Y363643D01*
X132888Y363548D01*
X132853Y363455D01*
X132815Y363364D01*
X132773Y363274D01*
X132727Y363186D01*
X132678Y363099D01*
X132625Y363015D01*
X132570Y362933D01*
X132511Y362853D01*
X132449Y362776D01*
X132383Y362701D01*
X132315Y362629D01*
X132245Y362559D01*
X132171Y362493D01*
X132095Y362429D01*
X132016Y362368D01*
X131935Y362311D01*
X131852Y362257D01*
X131767Y362206D01*
X131679Y362159D01*
X131590Y362115D01*
X131500Y362075D01*
X131407Y362038D01*
X131314Y362005D01*
X131219Y361976D01*
X131123Y361951D01*
X131026Y361929D01*
X130928Y361912D01*
X130830Y361898D01*
X130731Y361888D01*
X130632Y361882D01*
X130533Y361880D01*
X130533Y361881D02*
X128037Y361881D01*
X131032Y361881D02*
X133028Y357888D01*
X141963Y364626D02*
X141961Y364719D01*
X141955Y364811D01*
X141946Y364904D01*
X141932Y364996D01*
X141915Y365087D01*
X141894Y365177D01*
X141870Y365267D01*
X141841Y365355D01*
X141809Y365442D01*
X141774Y365528D01*
X141735Y365612D01*
X141692Y365695D01*
X141646Y365776D01*
X141597Y365854D01*
X141545Y365931D01*
X141489Y366006D01*
X141431Y366078D01*
X141369Y366147D01*
X141305Y366214D01*
X141238Y366278D01*
X141169Y366340D01*
X141097Y366398D01*
X141022Y366454D01*
X140945Y366506D01*
X140867Y366555D01*
X140786Y366601D01*
X140703Y366644D01*
X140619Y366683D01*
X140533Y366718D01*
X140446Y366750D01*
X140358Y366779D01*
X140268Y366803D01*
X140178Y366824D01*
X140087Y366841D01*
X139995Y366855D01*
X139902Y366864D01*
X139810Y366870D01*
X139717Y366872D01*
X139717Y366873D02*
X139610Y366871D01*
X139504Y366865D01*
X139397Y366855D01*
X139292Y366841D01*
X139186Y366824D01*
X139082Y366802D01*
X138978Y366777D01*
X138875Y366748D01*
X138774Y366715D01*
X138674Y366678D01*
X138575Y366637D01*
X138478Y366593D01*
X138382Y366546D01*
X138288Y366495D01*
X138197Y366440D01*
X138107Y366382D01*
X138020Y366321D01*
X137934Y366257D01*
X137852Y366189D01*
X137772Y366119D01*
X137694Y366045D01*
X137619Y365969D01*
X137547Y365890D01*
X137479Y365809D01*
X137413Y365725D01*
X137350Y365638D01*
X137291Y365550D01*
X137234Y365459D01*
X137182Y365366D01*
X137132Y365271D01*
X137087Y365175D01*
X137045Y365077D01*
X137006Y364977D01*
X136971Y364876D01*
X141214Y362879D02*
X141284Y362948D01*
X141350Y363019D01*
X141414Y363093D01*
X141474Y363170D01*
X141532Y363249D01*
X141586Y363330D01*
X141636Y363414D01*
X141684Y363499D01*
X141728Y363587D01*
X141768Y363676D01*
X141805Y363766D01*
X141838Y363858D01*
X141867Y363951D01*
X141892Y364046D01*
X141914Y364141D01*
X141931Y364237D01*
X141945Y364334D01*
X141955Y364431D01*
X141961Y364528D01*
X141963Y364626D01*
X141214Y362879D02*
X136972Y357888D01*
X141963Y357888D01*
X128037Y326872D02*
X128037Y317888D01*
X128037Y326872D02*
X130533Y326872D01*
X130632Y326870D01*
X130731Y326864D01*
X130830Y326854D01*
X130928Y326840D01*
X131026Y326823D01*
X131123Y326801D01*
X131219Y326776D01*
X131314Y326747D01*
X131407Y326714D01*
X131500Y326677D01*
X131590Y326637D01*
X131679Y326593D01*
X131767Y326546D01*
X131852Y326495D01*
X131935Y326441D01*
X132016Y326384D01*
X132095Y326323D01*
X132171Y326259D01*
X132245Y326193D01*
X132315Y326123D01*
X132383Y326051D01*
X132449Y325976D01*
X132511Y325899D01*
X132570Y325819D01*
X132625Y325737D01*
X132678Y325653D01*
X132727Y325566D01*
X132773Y325478D01*
X132815Y325388D01*
X132853Y325297D01*
X132888Y325204D01*
X132919Y325109D01*
X132946Y325014D01*
X132970Y324918D01*
X132989Y324820D01*
X133005Y324722D01*
X133017Y324624D01*
X133025Y324525D01*
X133029Y324426D01*
X133029Y324326D01*
X133025Y324227D01*
X133017Y324128D01*
X133005Y324030D01*
X132989Y323932D01*
X132970Y323834D01*
X132946Y323738D01*
X132919Y323643D01*
X132888Y323548D01*
X132853Y323455D01*
X132815Y323364D01*
X132773Y323274D01*
X132727Y323186D01*
X132678Y323099D01*
X132625Y323015D01*
X132570Y322933D01*
X132511Y322853D01*
X132449Y322776D01*
X132383Y322701D01*
X132315Y322629D01*
X132245Y322559D01*
X132171Y322493D01*
X132095Y322429D01*
X132016Y322368D01*
X131935Y322311D01*
X131852Y322257D01*
X131767Y322206D01*
X131679Y322159D01*
X131590Y322115D01*
X131500Y322075D01*
X131407Y322038D01*
X131314Y322005D01*
X131219Y321976D01*
X131123Y321951D01*
X131026Y321929D01*
X130928Y321912D01*
X130830Y321898D01*
X130731Y321888D01*
X130632Y321882D01*
X130533Y321880D01*
X130533Y321881D02*
X128037Y321881D01*
X131032Y321881D02*
X133028Y317888D01*
X136972Y317888D02*
X139467Y317888D01*
X139566Y317890D01*
X139665Y317896D01*
X139764Y317906D01*
X139862Y317920D01*
X139960Y317937D01*
X140057Y317959D01*
X140153Y317984D01*
X140248Y318013D01*
X140341Y318046D01*
X140434Y318083D01*
X140524Y318123D01*
X140613Y318167D01*
X140701Y318214D01*
X140786Y318265D01*
X140869Y318319D01*
X140950Y318376D01*
X141029Y318437D01*
X141105Y318501D01*
X141179Y318567D01*
X141249Y318637D01*
X141317Y318709D01*
X141383Y318784D01*
X141445Y318861D01*
X141504Y318941D01*
X141559Y319023D01*
X141612Y319107D01*
X141661Y319194D01*
X141707Y319282D01*
X141749Y319372D01*
X141787Y319463D01*
X141822Y319556D01*
X141853Y319651D01*
X141880Y319746D01*
X141904Y319842D01*
X141923Y319940D01*
X141939Y320038D01*
X141951Y320136D01*
X141959Y320235D01*
X141963Y320334D01*
X141963Y320434D01*
X141959Y320533D01*
X141951Y320632D01*
X141939Y320730D01*
X141923Y320828D01*
X141904Y320926D01*
X141880Y321022D01*
X141853Y321117D01*
X141822Y321212D01*
X141787Y321305D01*
X141749Y321396D01*
X141707Y321486D01*
X141661Y321574D01*
X141612Y321661D01*
X141559Y321745D01*
X141504Y321827D01*
X141445Y321907D01*
X141383Y321984D01*
X141317Y322059D01*
X141249Y322131D01*
X141179Y322201D01*
X141105Y322267D01*
X141029Y322331D01*
X140950Y322392D01*
X140869Y322449D01*
X140786Y322503D01*
X140701Y322554D01*
X140613Y322601D01*
X140524Y322645D01*
X140434Y322685D01*
X140341Y322722D01*
X140248Y322755D01*
X140153Y322784D01*
X140057Y322809D01*
X139960Y322831D01*
X139862Y322848D01*
X139764Y322862D01*
X139665Y322872D01*
X139566Y322878D01*
X139467Y322880D01*
X139966Y326872D02*
X136972Y326872D01*
X139966Y326872D02*
X140054Y326870D01*
X140142Y326864D01*
X140230Y326854D01*
X140317Y326841D01*
X140404Y326823D01*
X140490Y326802D01*
X140574Y326777D01*
X140658Y326748D01*
X140740Y326716D01*
X140821Y326680D01*
X140900Y326640D01*
X140977Y326597D01*
X141052Y326551D01*
X141125Y326501D01*
X141196Y326448D01*
X141264Y326392D01*
X141330Y326333D01*
X141393Y326272D01*
X141453Y326207D01*
X141511Y326140D01*
X141565Y326071D01*
X141616Y325999D01*
X141664Y325925D01*
X141709Y325848D01*
X141750Y325770D01*
X141788Y325691D01*
X141822Y325609D01*
X141853Y325526D01*
X141880Y325442D01*
X141903Y325357D01*
X141923Y325271D01*
X141938Y325184D01*
X141950Y325096D01*
X141958Y325008D01*
X141962Y324920D01*
X141962Y324832D01*
X141958Y324744D01*
X141950Y324656D01*
X141938Y324568D01*
X141923Y324481D01*
X141903Y324395D01*
X141880Y324310D01*
X141853Y324226D01*
X141822Y324143D01*
X141788Y324061D01*
X141750Y323982D01*
X141709Y323904D01*
X141664Y323827D01*
X141616Y323753D01*
X141565Y323681D01*
X141511Y323612D01*
X141453Y323545D01*
X141393Y323480D01*
X141330Y323419D01*
X141264Y323360D01*
X141196Y323304D01*
X141125Y323251D01*
X141052Y323201D01*
X140977Y323155D01*
X140900Y323112D01*
X140821Y323072D01*
X140740Y323036D01*
X140658Y323004D01*
X140574Y322975D01*
X140490Y322950D01*
X140404Y322929D01*
X140317Y322911D01*
X140230Y322898D01*
X140142Y322888D01*
X140054Y322882D01*
X139966Y322880D01*
X139966Y322879D02*
X137970Y322879D01*
D12*
X176000Y397000D03*
D13*
X180000Y389000D02*
X180000Y371000D01*
X179000Y371000D01*
X179000Y389000D02*
X180000Y389000D01*
X170000Y371000D02*
X160000Y371000D01*
X151000Y371000D02*
X150000Y371000D01*
X150000Y389000D01*
X151000Y389000D01*
D14*
X157281Y355719D02*
X157281Y349047D01*
X157283Y348948D01*
X157289Y348848D01*
X157298Y348749D01*
X157312Y348651D01*
X157329Y348553D01*
X157350Y348455D01*
X157375Y348359D01*
X157404Y348264D01*
X157436Y348169D01*
X157472Y348077D01*
X157511Y347985D01*
X157554Y347895D01*
X157600Y347807D01*
X157650Y347721D01*
X157703Y347637D01*
X157759Y347555D01*
X157819Y347475D01*
X157881Y347398D01*
X157947Y347323D01*
X158015Y347250D01*
X158086Y347181D01*
X158160Y347114D01*
X158236Y347050D01*
X158315Y346989D01*
X158396Y346931D01*
X158479Y346876D01*
X158564Y346825D01*
X158651Y346777D01*
X158740Y346732D01*
X158831Y346691D01*
X158923Y346653D01*
X159016Y346619D01*
X159111Y346589D01*
X159207Y346562D01*
X159304Y346539D01*
X159401Y346520D01*
X159500Y346505D01*
X159599Y346493D01*
X159698Y346485D01*
X159797Y346481D01*
X159897Y346481D01*
X159996Y346485D01*
X160095Y346493D01*
X160194Y346505D01*
X160293Y346520D01*
X160390Y346539D01*
X160487Y346562D01*
X160583Y346589D01*
X160678Y346619D01*
X160771Y346653D01*
X160863Y346691D01*
X160954Y346732D01*
X161043Y346777D01*
X161130Y346825D01*
X161215Y346876D01*
X161298Y346931D01*
X161379Y346989D01*
X161458Y347050D01*
X161534Y347114D01*
X161608Y347181D01*
X161679Y347250D01*
X161747Y347323D01*
X161813Y347398D01*
X161875Y347475D01*
X161935Y347555D01*
X161991Y347637D01*
X162044Y347721D01*
X162094Y347807D01*
X162140Y347895D01*
X162183Y347985D01*
X162222Y348077D01*
X162258Y348169D01*
X162290Y348264D01*
X162319Y348359D01*
X162344Y348455D01*
X162365Y348553D01*
X162382Y348651D01*
X162396Y348749D01*
X162405Y348848D01*
X162411Y348948D01*
X162413Y349047D01*
X162413Y355719D01*
X166581Y353666D02*
X169147Y355719D01*
X169147Y346481D01*
X166581Y346481D02*
X171713Y346481D01*
M02*
