G04 EAGLE Gerber RS-274X export*
G75*
%MOMM*%
%FSLAX34Y34*%
%LPD*%
%INSoldermask Top*%
%IPPOS*%
%AMOC8*
5,1,8,0,0,1.08239X$1,22.5*%
G01*
%ADD10R,1.403200X1.003200*%
%ADD11R,1.053200X1.103200*%
%ADD12R,2.303200X1.603200*%
%ADD13C,0.505344*%
%ADD14C,2.703200*%
%ADD15C,2.453200*%
%ADD16R,4.703200X2.803200*%
%ADD17C,0.321278*%
%ADD18C,0.703200*%


D10*
X195000Y371000D03*
X195000Y389000D03*
X165000Y429000D03*
X165000Y411000D03*
D11*
X140800Y390000D03*
X129200Y390000D03*
D12*
X190000Y413000D03*
X190000Y457000D03*
D13*
X134720Y313490D02*
X134720Y306510D01*
X127740Y306510D01*
X127740Y313490D01*
X134720Y313490D01*
X134720Y311310D02*
X127740Y311310D01*
X152260Y313490D02*
X152260Y306510D01*
X145280Y306510D01*
X145280Y313490D01*
X152260Y313490D01*
X152260Y311310D02*
X145280Y311310D01*
D14*
X197500Y315000D02*
X222500Y315000D01*
D15*
X221250Y255000D02*
X198750Y255000D01*
X257000Y273750D02*
X257000Y296250D01*
D14*
X222500Y505000D02*
X197500Y505000D01*
D15*
X198750Y565000D02*
X221250Y565000D01*
X163000Y546250D02*
X163000Y523750D01*
D16*
X260000Y360000D03*
X260000Y440000D03*
D11*
X140800Y405000D03*
X129200Y405000D03*
X129200Y375000D03*
X140800Y375000D03*
X129200Y335000D03*
X140800Y335000D03*
D17*
X172090Y388090D02*
X172090Y397910D01*
X176910Y397910D01*
X176910Y388090D01*
X172090Y388090D01*
X172090Y391142D02*
X176910Y391142D01*
X176910Y394194D02*
X172090Y394194D01*
X172090Y397246D02*
X176910Y397246D01*
X162590Y397910D02*
X162590Y388090D01*
X162590Y397910D02*
X167410Y397910D01*
X167410Y388090D01*
X162590Y388090D01*
X162590Y391142D02*
X167410Y391142D01*
X167410Y394194D02*
X162590Y394194D01*
X162590Y397246D02*
X167410Y397246D01*
X153090Y397910D02*
X153090Y388090D01*
X153090Y397910D02*
X157910Y397910D01*
X157910Y388090D01*
X153090Y388090D01*
X153090Y391142D02*
X157910Y391142D01*
X157910Y394194D02*
X153090Y394194D01*
X153090Y397246D02*
X157910Y397246D01*
X153090Y371910D02*
X153090Y362090D01*
X153090Y371910D02*
X157910Y371910D01*
X157910Y362090D01*
X153090Y362090D01*
X153090Y365142D02*
X157910Y365142D01*
X157910Y368194D02*
X153090Y368194D01*
X153090Y371246D02*
X157910Y371246D01*
X172090Y371910D02*
X172090Y362090D01*
X172090Y371910D02*
X176910Y371910D01*
X176910Y362090D01*
X172090Y362090D01*
X172090Y365142D02*
X176910Y365142D01*
X176910Y368194D02*
X172090Y368194D01*
X172090Y371246D02*
X176910Y371246D01*
D18*
X125000Y245000D03*
X295000Y245000D03*
X295000Y575000D03*
M02*
