G04 EAGLE Gerber RS-274X export*
G75*
%MOMM*%
%FSLAX34Y34*%
%LPD*%
%INSolderpaste Top*%
%IPPOS*%
%AMOC8*
5,1,8,0,0,1.08239X$1,22.5*%
G01*
%ADD10R,1.200000X0.800000*%
%ADD11R,0.850000X0.900000*%
%ADD12R,2.100000X1.400000*%
%ADD13C,0.300000*%
%ADD14R,4.500000X2.600000*%
%ADD15C,0.120000*%


D10*
X195000Y371000D03*
X195000Y389000D03*
X165000Y429000D03*
X165000Y411000D03*
D11*
X140800Y390000D03*
X129200Y390000D03*
D12*
X190000Y413000D03*
X190000Y457000D03*
D13*
X134730Y313500D02*
X134730Y306500D01*
X127730Y306500D01*
X127730Y313500D01*
X134730Y313500D01*
X134730Y309350D02*
X127730Y309350D01*
X127730Y312200D02*
X134730Y312200D01*
X152270Y313500D02*
X152270Y306500D01*
X145270Y306500D01*
X145270Y313500D01*
X152270Y313500D01*
X152270Y309350D02*
X145270Y309350D01*
X145270Y312200D02*
X152270Y312200D01*
D14*
X260000Y360000D03*
X260000Y440000D03*
D11*
X140800Y405000D03*
X129200Y405000D03*
X129200Y375000D03*
X140800Y375000D03*
X129200Y335000D03*
X140800Y335000D03*
D15*
X172100Y388100D02*
X172100Y397900D01*
X176900Y397900D01*
X176900Y388100D01*
X172100Y388100D01*
X172100Y389240D02*
X176900Y389240D01*
X176900Y390380D02*
X172100Y390380D01*
X172100Y391520D02*
X176900Y391520D01*
X176900Y392660D02*
X172100Y392660D01*
X172100Y393800D02*
X176900Y393800D01*
X176900Y394940D02*
X172100Y394940D01*
X172100Y396080D02*
X176900Y396080D01*
X176900Y397220D02*
X172100Y397220D01*
X162600Y397900D02*
X162600Y388100D01*
X162600Y397900D02*
X167400Y397900D01*
X167400Y388100D01*
X162600Y388100D01*
X162600Y389240D02*
X167400Y389240D01*
X167400Y390380D02*
X162600Y390380D01*
X162600Y391520D02*
X167400Y391520D01*
X167400Y392660D02*
X162600Y392660D01*
X162600Y393800D02*
X167400Y393800D01*
X167400Y394940D02*
X162600Y394940D01*
X162600Y396080D02*
X167400Y396080D01*
X167400Y397220D02*
X162600Y397220D01*
X153100Y397900D02*
X153100Y388100D01*
X153100Y397900D02*
X157900Y397900D01*
X157900Y388100D01*
X153100Y388100D01*
X153100Y389240D02*
X157900Y389240D01*
X157900Y390380D02*
X153100Y390380D01*
X153100Y391520D02*
X157900Y391520D01*
X157900Y392660D02*
X153100Y392660D01*
X153100Y393800D02*
X157900Y393800D01*
X157900Y394940D02*
X153100Y394940D01*
X153100Y396080D02*
X157900Y396080D01*
X157900Y397220D02*
X153100Y397220D01*
X153100Y371900D02*
X153100Y362100D01*
X153100Y371900D02*
X157900Y371900D01*
X157900Y362100D01*
X153100Y362100D01*
X153100Y363240D02*
X157900Y363240D01*
X157900Y364380D02*
X153100Y364380D01*
X153100Y365520D02*
X157900Y365520D01*
X157900Y366660D02*
X153100Y366660D01*
X153100Y367800D02*
X157900Y367800D01*
X157900Y368940D02*
X153100Y368940D01*
X153100Y370080D02*
X157900Y370080D01*
X157900Y371220D02*
X153100Y371220D01*
X172100Y371900D02*
X172100Y362100D01*
X172100Y371900D02*
X176900Y371900D01*
X176900Y362100D01*
X172100Y362100D01*
X172100Y363240D02*
X176900Y363240D01*
X176900Y364380D02*
X172100Y364380D01*
X172100Y365520D02*
X176900Y365520D01*
X176900Y366660D02*
X172100Y366660D01*
X172100Y367800D02*
X176900Y367800D01*
X176900Y368940D02*
X172100Y368940D01*
X172100Y370080D02*
X176900Y370080D01*
X176900Y371220D02*
X172100Y371220D01*
M02*
