G04 EAGLE Gerber RS-274X export*
G75*
%MOMM*%
%FSLAX34Y34*%
%LPD*%
%INBottom Copper*%
%IPPOS*%
%AMOC8*
5,1,8,0,0,1.08239X$1,22.5*%
G01*
%ADD10C,2.500000*%
%ADD11C,2.250000*%
%ADD12C,0.756400*%

G36*
X306464Y232798D02*
X306464Y232798D01*
X306483Y232796D01*
X306585Y232818D01*
X306687Y232834D01*
X306704Y232844D01*
X306724Y232848D01*
X306813Y232901D01*
X306904Y232950D01*
X306918Y232964D01*
X306935Y232974D01*
X307002Y233053D01*
X307074Y233128D01*
X307082Y233146D01*
X307095Y233161D01*
X307134Y233257D01*
X307177Y233351D01*
X307179Y233371D01*
X307187Y233389D01*
X307205Y233556D01*
X307205Y586444D01*
X307202Y586464D01*
X307204Y586483D01*
X307182Y586585D01*
X307166Y586687D01*
X307156Y586704D01*
X307152Y586724D01*
X307099Y586813D01*
X307050Y586904D01*
X307036Y586918D01*
X307026Y586935D01*
X306947Y587002D01*
X306872Y587074D01*
X306854Y587082D01*
X306839Y587095D01*
X306743Y587134D01*
X306649Y587177D01*
X306629Y587179D01*
X306611Y587187D01*
X306444Y587205D01*
X113556Y587205D01*
X113536Y587202D01*
X113517Y587204D01*
X113415Y587182D01*
X113313Y587166D01*
X113296Y587156D01*
X113276Y587152D01*
X113187Y587099D01*
X113096Y587050D01*
X113082Y587036D01*
X113065Y587026D01*
X112998Y586947D01*
X112926Y586872D01*
X112918Y586854D01*
X112905Y586839D01*
X112866Y586743D01*
X112823Y586649D01*
X112821Y586629D01*
X112813Y586611D01*
X112795Y586444D01*
X112795Y233556D01*
X112798Y233536D01*
X112796Y233517D01*
X112818Y233415D01*
X112834Y233313D01*
X112844Y233296D01*
X112848Y233276D01*
X112901Y233187D01*
X112950Y233096D01*
X112964Y233082D01*
X112974Y233065D01*
X113053Y232998D01*
X113128Y232926D01*
X113146Y232918D01*
X113161Y232905D01*
X113257Y232866D01*
X113351Y232823D01*
X113371Y232821D01*
X113389Y232813D01*
X113556Y232795D01*
X306444Y232795D01*
X306464Y232798D01*
G37*
%LPC*%
G36*
X196114Y551749D02*
X196114Y551749D01*
X191244Y553767D01*
X187517Y557494D01*
X185499Y562364D01*
X185499Y567636D01*
X187517Y572506D01*
X191244Y576233D01*
X196114Y578251D01*
X223886Y578251D01*
X228756Y576233D01*
X232483Y572506D01*
X234501Y567636D01*
X234501Y562364D01*
X232483Y557494D01*
X228756Y553767D01*
X223886Y551749D01*
X196114Y551749D01*
G37*
%LPD*%
%LPC*%
G36*
X160364Y510499D02*
X160364Y510499D01*
X155494Y512517D01*
X151767Y516244D01*
X149749Y521114D01*
X149749Y548886D01*
X151767Y553756D01*
X155494Y557483D01*
X160364Y559501D01*
X165636Y559501D01*
X170506Y557483D01*
X174233Y553756D01*
X176251Y548886D01*
X176251Y521114D01*
X174233Y516244D01*
X170506Y512517D01*
X165636Y510499D01*
X160364Y510499D01*
G37*
%LPD*%
%LPC*%
G36*
X254364Y260499D02*
X254364Y260499D01*
X249494Y262517D01*
X245767Y266244D01*
X243749Y271114D01*
X243749Y298886D01*
X245767Y303756D01*
X249494Y307483D01*
X254364Y309501D01*
X259636Y309501D01*
X264506Y307483D01*
X268233Y303756D01*
X270251Y298886D01*
X270251Y271114D01*
X268233Y266244D01*
X264506Y262517D01*
X259636Y260499D01*
X254364Y260499D01*
G37*
%LPD*%
%LPC*%
G36*
X196114Y241749D02*
X196114Y241749D01*
X191244Y243767D01*
X187517Y247494D01*
X185499Y252364D01*
X185499Y257636D01*
X187517Y262506D01*
X191244Y266233D01*
X196114Y268251D01*
X223886Y268251D01*
X228756Y266233D01*
X232483Y262506D01*
X234501Y257636D01*
X234501Y252364D01*
X232483Y247494D01*
X228756Y243767D01*
X223886Y241749D01*
X196114Y241749D01*
G37*
%LPD*%
D10*
X197500Y315000D02*
X222500Y315000D01*
D11*
X221250Y255000D02*
X198750Y255000D01*
X257000Y273750D02*
X257000Y296250D01*
D10*
X222500Y505000D02*
X197500Y505000D01*
D11*
X198750Y565000D02*
X221250Y565000D01*
X163000Y546250D02*
X163000Y523750D01*
D12*
X120000Y415000D03*
X140000Y415000D03*
X150000Y415000D03*
X210000Y395000D03*
X300000Y395000D03*
X300000Y260000D03*
X120000Y260000D03*
X120000Y365000D03*
M02*
